<svg version="1.1" id="Layer_1" xmlns="http://www.w3.org/2000/svg" xmlns:xlink="http://www.w3.org/1999/xlink" x="0px" y="0px"
	 width="100%" viewBox="0 0 404 348" enable-background="new 0 0 404 348" xml:space="preserve">
<path fill="#FEFFFE" opacity="1.000000" stroke="none" 
	d="
M405.000000,90.000000 
	C405.000000,176.281479 405.000000,262.562958 405.000000,348.922241 
	C270.333344,348.922241 135.666687,348.922241 1.000000,348.922241 
	C1.000000,327.244751 1.000000,305.591034 1.377423,283.450867 
	C2.750167,284.086975 4.098474,285.051575 4.683226,286.357910 
	C8.339461,294.526093 12.220882,302.380066 19.913090,307.789093 
	C26.212887,312.218964 32.283421,316.846313 40.350475,317.516296 
	C40.372158,317.558258 40.465782,317.571106 40.361252,317.941711 
	C41.603649,320.027130 42.869316,322.202911 45.453548,319.223694 
	C46.883602,319.589630 47.915283,319.889984 49.043621,320.547577 
	C51.118244,321.499054 53.451893,321.617126 55.006458,322.778290 
	C59.399731,326.059692 64.233223,324.780426 68.963982,324.787445 
	C78.622131,324.801819 88.280792,324.733704 97.938217,324.817352 
	C100.781639,324.841949 103.895523,325.742706 104.425743,321.201111 
	C105.527786,321.080750 106.269341,321.052216 107.285355,321.304199 
	C111.652748,321.376007 115.828079,321.606964 119.819931,320.858917 
	C126.341743,319.636719 132.753448,317.813477 139.191803,316.166443 
	C141.569031,315.558319 143.859100,314.601288 146.243134,314.029449 
	C152.736237,312.471893 159.532516,311.750061 165.704773,309.383148 
	C175.026932,305.808228 183.921875,301.119293 193.410339,296.923096 
	C196.338654,296.310608 199.030029,296.052124 201.335739,294.971069 
	C206.487335,292.555695 211.283493,289.325562 216.538727,287.206879 
	C220.359680,285.666412 223.951279,284.496582 225.148926,279.724670 
	C225.874374,279.333099 226.436127,279.192078 227.057770,279.403442 
	C227.938995,280.135712 228.906525,281.010315 229.558670,280.817596 
	C235.030258,279.200684 239.030563,275.712891 241.749176,270.832458 
	C241.805984,270.987885 241.722321,270.667938 242.078110,270.802612 
	C243.796860,270.942230 245.749130,271.538910 246.431015,270.859894 
	C252.742065,264.575226 262.391785,263.145660 268.346832,255.884735 
	C274.457733,252.036072 280.247131,248.264221 285.945312,244.359238 
	C289.546875,241.891068 293.064117,239.291306 296.519928,236.622086 
	C298.724670,234.919159 300.586243,232.733917 302.900146,231.221619 
	C305.028625,229.830521 306.857239,228.767700 304.983307,225.761124 
	C305.029510,225.530518 305.090149,225.064056 305.059082,225.029083 
	C305.028015,224.994125 305.060364,225.081833 305.397583,225.013214 
	C306.723633,224.377823 307.712463,223.811066 308.838440,223.587448 
	C310.121796,223.566208 311.267975,223.201813 312.414185,222.837433 
	C311.957428,222.223297 311.500671,221.609177 311.197266,220.737640 
	C311.960571,219.709259 312.570587,218.938309 313.099487,218.145294 
	C313.018341,218.123230 313.159332,218.214874 313.371277,218.259277 
	C313.583252,218.303680 314.004669,218.408661 313.990234,218.735168 
	C315.069702,222.346664 316.148560,219.924332 317.309937,219.088150 
	C319.782013,217.308319 322.320862,215.621063 324.787445,213.833893 
	C325.542694,213.286667 326.231537,212.600693 326.811218,211.867874 
	C328.068573,210.278397 329.041779,208.417465 330.478058,207.025391 
	C334.126495,203.489212 338.125275,200.306931 341.686096,196.689911 
	C345.644592,192.668961 349.273621,188.323654 353.611694,183.489212 
	C357.299377,188.186432 360.519958,192.688690 364.160400,196.821030 
	C368.383057,201.614243 371.523834,207.642639 378.353760,209.963257 
	C378.570557,210.020828 378.992432,210.173386 379.031647,210.520386 
	C380.140991,212.319458 381.211121,213.771530 382.471039,215.481171 
	C386.026031,209.296951 385.611145,207.891113 379.290344,202.570953 
	C379.107483,201.128174 379.062012,200.062027 379.343536,198.821030 
	C380.089905,197.293640 381.042328,195.854065 380.838074,194.603394 
	C379.862244,188.628860 378.587341,182.702606 377.391022,176.764771 
	C375.812286,168.928970 374.326477,161.071503 372.563354,153.277023 
	C371.699463,149.458023 370.299774,145.760223 369.053955,141.683823 
	C368.961182,140.914627 368.957062,140.469147 369.254700,139.756378 
	C369.676392,139.181992 369.914001,138.869019 369.899017,138.568649 
	C369.557404,131.721390 369.459106,124.841827 368.615967,118.055176 
	C368.427032,116.534233 365.612000,115.339523 363.672546,113.959854 
	C362.892609,113.944199 362.446106,113.963303 361.759888,113.710342 
	C355.344055,112.472870 351.475128,116.973618 346.964417,119.768814 
	C343.490173,121.921738 340.344971,124.369057 335.852783,123.128181 
	C334.875122,122.858124 332.766052,123.283760 332.674591,123.710129 
	C331.002228,131.503281 322.736145,130.712692 318.035645,134.581482 
	C311.215240,140.195129 302.254852,143.231491 294.151581,147.255173 
	C289.424194,149.602570 284.428131,151.451447 279.861145,154.063538 
	C277.076874,155.656021 272.725006,156.184830 272.994507,160.991196 
	C272.999329,160.997482 272.994141,160.994247 272.576294,160.986816 
	C266.695648,161.181717 266.695648,161.181717 268.320007,164.921112 
	C268.558289,164.912277 269.025513,165.007385 269.061768,165.355591 
	C272.240997,170.527115 273.533508,166.862198 275.470642,164.306732 
	C276.901062,164.201309 277.948608,164.187195 279.225067,164.425262 
	C282.652710,164.177628 285.851471,163.677826 289.364777,163.089905 
	C290.112762,163.018326 290.546173,163.034897 291.062836,163.419983 
	C293.420197,163.896942 295.706360,163.896927 297.964783,164.147186 
	C299.866333,164.357895 301.735626,164.859604 303.494202,165.504074 
	C302.969604,166.208054 302.570007,166.640457 301.810364,167.032379 
	C300.969574,167.016769 300.488892,167.041626 299.637146,167.063492 
	C296.198578,170.196060 293.235748,173.442917 290.043976,176.446533 
	C279.998322,185.900070 269.953339,195.358261 259.713806,204.599365 
	C256.764618,207.260986 253.042236,209.045670 249.889816,211.508224 
	C247.095001,213.691422 244.764481,216.477905 241.931534,218.601166 
	C237.996033,221.550812 233.690536,224.006454 229.751068,226.951340 
	C228.726562,227.717194 228.473587,229.515167 227.480804,230.890717 
	C225.799683,231.141312 224.265732,230.962112 223.248550,231.603043 
	C218.183838,234.794266 213.353409,238.361984 208.248993,241.484055 
	C203.738342,244.242950 198.813126,246.337128 194.372452,249.193497 
	C190.359100,251.774994 186.753647,254.990616 182.819794,258.033752 
	C182.671234,258.140900 182.309418,258.198700 181.986511,258.124573 
	C181.443222,258.036346 181.222809,258.022247 180.592499,258.010437 
	C178.430679,258.357819 176.534637,258.387848 174.955429,259.110413 
	C171.100891,260.874084 167.498657,263.209351 163.599487,264.850220 
	C158.667511,266.925690 153.455490,268.342072 148.551300,270.473206 
	C147.037415,271.131073 146.134827,273.195648 144.657593,274.754578 
	C143.933411,274.942780 143.503967,274.992584 142.690521,275.007202 
	C141.537796,274.981659 140.769104,274.991272 139.677902,274.863586 
	C136.217804,275.254639 133.053833,275.673523 129.968353,276.417786 
	C129.447739,276.543365 129.265671,278.072449 128.479752,278.969788 
	C121.178101,280.104736 114.343224,281.364777 107.464508,282.303650 
	C99.716049,283.361267 91.945992,284.373962 84.151535,284.944427 
	C78.186165,285.381012 72.168266,285.100006 66.173729,285.137543 
	C56.086807,285.200714 46.493607,284.049835 38.698826,276.441467 
	C36.837189,274.624329 33.576981,274.240021 30.670788,273.113220 
	C29.999239,272.904694 29.616928,272.779694 29.172325,272.292419 
	C24.990400,264.439178 23.348093,256.408661 24.059557,247.919907 
	C25.248587,233.733093 30.595627,221.000565 38.261932,208.970612 
	C45.312794,204.688797 47.664928,198.001770 48.904739,190.403900 
	C49.448124,189.660172 49.916119,189.166946 50.828316,188.758667 
	C54.897934,188.732422 54.131798,186.675873 53.236828,184.422272 
	C53.293480,184.307373 53.468544,184.120331 53.799053,184.343872 
	C56.900406,181.629959 59.671246,178.692474 62.442085,175.754990 
	C61.935833,175.387421 61.429585,175.019852 61.028011,174.395386 
	C61.269497,174.014069 61.406300,173.889648 61.938736,173.831650 
	C68.597572,171.560089 72.035095,167.127090 71.896225,161.470230 
	C72.197975,161.040359 72.456879,160.895325 73.142761,160.852539 
	C78.443520,160.029251 80.879372,157.044006 81.138962,151.911972 
	C81.211235,151.701584 81.283913,151.262650 81.481628,151.272400 
	C81.679344,151.282150 82.074921,151.298615 82.229309,151.567810 
	C86.266678,152.753815 88.763298,150.070648 88.931473,144.925171 
	C88.984131,144.993820 88.859085,144.874115 89.267227,144.915649 
	C91.785461,144.635651 93.895546,144.314133 96.056961,144.131073 
	C96.191391,144.320312 96.274490,144.371094 96.357590,144.421860 
	C96.235947,144.283112 96.114296,144.144379 96.027901,143.636047 
	C96.738884,139.151245 100.553452,138.181107 103.199379,135.982452 
	C105.550957,134.028381 109.938866,133.159210 108.160461,128.299805 
	C108.251129,128.184265 108.494057,128.019135 108.770096,128.281738 
	C109.852882,129.053024 110.659637,129.561722 110.714050,129.596039 
	C112.731209,128.522552 114.299675,127.671028 115.883774,126.849648 
	C117.448364,126.038361 120.253853,125.416771 120.381500,124.434677 
	C120.835396,120.942482 123.707779,120.419189 125.669556,118.647797 
	C127.232887,117.236183 127.858078,114.785614 129.083984,112.510895 
	C137.078644,107.096359 144.889038,101.967186 153.119873,96.891571 
	C154.581665,96.114319 155.623047,95.283524 156.805984,94.304161 
	C157.162827,93.975632 157.408234,93.859123 158.048294,93.896820 
	C162.746445,94.893761 166.311249,92.524490 167.807159,87.846016 
	C167.831955,87.931747 167.797638,87.765648 168.160126,87.840912 
	C169.357010,87.289719 170.191406,86.663254 171.125000,85.914932 
	C171.224213,85.793083 171.537643,85.770065 171.852264,85.774849 
	C172.446945,85.489128 172.726990,85.198631 173.100220,84.792053 
	C173.193405,84.675972 173.491089,84.673103 173.859253,84.786522 
	C174.481949,84.926506 174.736465,84.953064 175.391388,84.979973 
	C179.555969,85.175430 182.282104,83.958511 182.926605,79.831940 
	C183.010010,79.867371 182.832809,79.829987 183.266418,79.892578 
	C185.892151,79.652168 189.265671,81.295082 189.094986,76.566811 
	C189.824005,76.139877 190.366592,75.939171 191.107452,76.044800 
	C194.782867,75.233170 198.323898,74.272209 201.697464,72.899666 
	C202.683838,72.498360 203.193588,70.925598 203.965088,69.933617 
	C204.008377,69.977455 203.906631,69.908745 204.287460,69.991394 
	C207.780197,70.047600 210.892105,70.021156 214.057114,70.129791 
	C214.191589,70.314751 214.272949,70.364624 214.354324,70.414497 
	C214.234451,70.277679 214.114563,70.140854 214.045410,69.654861 
	C216.209488,67.869469 218.141296,65.875145 220.474915,65.116089 
	C224.987762,63.648193 229.995193,63.512779 234.319504,61.690495 
	C244.959076,57.206936 256.182770,55.267551 267.328339,52.844395 
	C269.331238,52.408939 271.109497,50.940071 273.229309,49.832970 
	C273.812347,49.731449 274.157471,49.745285 274.854584,49.859512 
	C276.443207,49.509781 278.696564,54.311668 279.494385,49.138100 
	C285.617981,48.996445 291.281647,48.935570 297.089233,49.124298 
	C297.836823,49.218044 298.440460,49.062187 299.469940,48.867451 
	C301.596985,48.981190 303.298218,49.133812 305.192322,49.565018 
	C309.555389,51.875023 313.409210,55.377834 318.842194,52.644058 
	C319.429016,52.647369 319.732544,52.776390 320.133545,53.314220 
	C325.462189,57.399742 330.647430,61.175571 335.874786,64.892227 
	C336.191315,65.117271 336.842438,64.871735 337.517883,64.880562 
	C337.697937,64.915962 338.056946,64.992027 338.080750,65.314606 
	C338.761566,66.904594 339.418610,68.172005 340.115540,69.756699 
	C340.451477,70.632576 340.747528,71.191162 341.036530,72.174294 
	C344.879181,84.761665 342.399078,96.698608 338.561188,109.666214 
	C351.914978,102.724907 363.920013,96.484665 376.397034,89.999084 
	C379.140472,105.262085 381.697113,119.485985 384.463898,134.879120 
	C385.924744,132.828400 386.743713,132.002258 387.185638,131.008438 
	C391.772003,120.695419 396.314026,110.362556 400.830658,100.018745 
	C402.277924,96.704254 403.613403,93.340965 405.000000,90.000000 
M109.522491,133.634583 
	C109.468895,133.843201 109.415298,134.051804 109.361710,134.260422 
	C109.492210,134.126801 109.622704,133.993164 109.522491,133.634583 
M380.407959,216.478821 
	C380.407959,216.478821 380.524811,216.406845 380.407959,216.478821 
z"/>
<path fill="#FFFFFF" opacity="1.000000" stroke="none" 
	d="
M0.999998,247.000000 
	C1.000000,165.069580 1.000000,83.139153 1.000000,1.000000 
	C90.687454,1.000000 180.375061,1.000000 270.535889,1.367720 
	C270.564331,3.754439 270.767090,6.862885 269.551697,7.585278 
	C266.100891,9.636314 265.215729,12.502163 264.999146,16.305561 
	C264.993500,17.008690 264.991119,17.410515 264.751984,17.982855 
	C264.134247,18.150225 263.753235,18.147079 263.043091,18.101635 
	C262.149597,18.327318 261.585175,18.595301 260.755127,19.019066 
	C260.086914,19.226076 259.684326,19.277300 259.170410,18.969593 
	C254.546692,18.610661 250.034302,18.610661 245.251266,18.610661 
	C245.161209,20.096132 245.074158,21.531935 244.974930,23.180683 
	C244.962753,23.393627 244.965683,23.820204 244.769897,23.933289 
	C244.574127,24.046373 244.122147,24.059904 243.821075,24.024860 
	C243.012894,24.265673 242.505783,24.541527 241.776810,24.913548 
	C241.554932,25.009712 241.071899,25.033905 240.779053,25.004591 
	C239.993179,25.236021 239.500122,25.496765 238.769653,25.908688 
	C238.164612,26.106823 237.796997,26.153780 237.150864,26.167507 
	C236.581284,26.345947 236.290237,26.557615 235.791565,26.914883 
	C235.414917,27.063158 235.245880,27.065832 234.995789,26.703186 
	C230.696609,23.833517 227.772186,26.134714 224.595734,29.009224 
	C222.096039,29.023657 219.684662,28.600080 219.676941,32.020660 
	C213.907669,33.836594 208.506058,35.573868 203.166397,37.484261 
	C200.187866,38.549908 197.012558,39.477364 194.482239,41.257736 
	C192.336105,42.767780 190.988693,45.413006 189.173111,47.628624 
	C189.058365,47.701332 188.786697,47.697929 188.380890,47.502708 
	C187.037842,47.987709 186.100601,48.667931 184.968719,49.564751 
	C183.957687,50.247318 183.141296,50.713284 182.039825,51.170582 
	C181.500397,51.424507 181.246063,51.687096 180.886719,52.081486 
	C180.781693,52.213284 180.447861,52.259563 180.014618,52.175106 
	C173.027100,52.211006 168.600357,54.972240 166.874680,60.082897 
	C166.774750,60.211521 166.451538,60.252190 166.000473,60.174065 
	C163.147751,60.019939 160.464066,59.593922 161.167862,63.695641 
	C160.800797,64.042641 160.668640,64.281494 160.276367,64.668816 
	C156.652237,66.529938 153.398926,68.303818 149.816757,69.945663 
	C148.142181,69.409187 146.796463,69.004730 146.485336,68.911217 
	C144.692093,70.713020 143.694077,72.128769 142.344330,72.998985 
	C137.091385,76.385742 131.685455,79.536407 126.462769,82.967209 
	C125.890610,83.343056 126.132904,84.958763 125.984497,86.244698 
	C125.971558,86.489990 125.992577,86.980804 125.781494,87.208862 
	C124.739304,88.032898 123.908203,88.628868 122.895996,88.938019 
	C116.055534,89.347473 113.372841,91.560158 113.806320,96.124519 
	C113.244377,96.632828 112.808334,96.911743 112.077133,97.208801 
	C111.538757,97.519203 111.295540,97.811462 110.916199,98.308441 
	C110.542610,98.758842 110.254639,98.905098 109.604523,98.806564 
	C107.971199,99.150955 106.551170,99.472946 105.353874,100.174858 
	C103.998985,100.969170 102.881630,102.156731 101.595657,103.082558 
	C95.105995,107.754761 88.511070,112.286285 82.133682,117.106133 
	C79.649063,118.983940 77.637665,121.487892 75.410713,123.706627 
	C74.951996,123.425377 74.493279,123.144127 74.034561,122.862877 
	C74.391754,124.940155 74.748947,127.017433 75.096931,129.079468 
	C75.087723,129.064240 75.095192,129.089493 74.690285,129.053497 
	C71.214706,128.792847 69.687172,130.071686 70.042877,133.530014 
	C69.408630,134.241348 68.867584,134.698868 68.046089,135.197479 
	C67.510948,135.508072 67.256264,135.777557 66.741791,136.209839 
	C65.767281,137.303101 65.052559,138.233551 63.947784,139.128098 
	C62.363823,139.763580 60.957500,140.220123 60.018051,141.148911 
	C57.709122,143.431656 55.493229,145.833923 53.460716,148.365387 
	C49.592300,153.183426 45.878048,158.125244 41.806946,163.196045 
	C40.076759,166.045181 38.639408,168.713928 37.174961,171.735992 
	C35.210232,175.187424 33.317883,178.314972 31.327387,181.378754 
	C20.819275,197.552963 11.520712,214.342026 5.557518,232.779312 
	C4.161207,237.096481 3.317891,241.592499 2.093917,246.258347 
	C1.645118,246.673630 1.322557,246.836807 0.999998,247.000000 
z"/>
<path fill="#54B74A" opacity="1.000000" stroke="none" 
	d="
M226.997894,279.051086 
	C226.436127,279.192078 225.874374,279.333099 224.789734,279.760406 
	C217.915497,283.227600 211.556030,286.392456 205.215698,289.595215 
	C201.117493,291.665405 197.047318,293.791138 192.574799,295.875732 
	C190.920959,296.253723 189.608398,296.535919 188.400009,297.058838 
	C166.222015,306.656494 143.326477,313.941986 119.583412,318.518616 
	C115.387512,319.327362 111.201485,320.187347 107.010895,321.023682 
	C106.269341,321.052216 105.527786,321.080750 104.002121,321.105164 
	C85.077507,323.786255 66.984398,323.647400 48.946964,320.190369 
	C47.915283,319.889984 46.883602,319.589630 45.226044,319.020813 
	C43.222038,318.358612 41.843914,317.964844 40.465782,317.571106 
	C40.465782,317.571106 40.372158,317.558258 40.173122,317.249420 
	C38.503498,316.175659 37.063965,315.342590 35.557484,314.656494 
	C21.669329,308.331329 11.571688,298.343994 5.812371,284.097168 
	C4.301738,280.360321 2.609067,276.697052 0.999997,273.000000 
	C1.000000,265.979065 1.000000,258.958099 1.376191,251.470947 
	C3.203712,251.296097 4.655040,251.587463 6.094406,251.894699 
	C6.082443,251.910568 6.088644,251.945190 6.066257,252.315918 
	C7.038300,254.113480 8.032730,255.540314 9.014549,256.983521 
	C9.001937,256.999847 9.034842,256.974091 9.028907,257.340210 
	C9.750756,258.445587 10.478541,259.184845 11.411176,260.016815 
	C11.866439,260.304840 12.011574,260.560059 12.134310,261.129089 
	C12.496980,261.591949 12.776771,261.800842 13.125870,262.166077 
	C13.195179,262.322449 13.171863,262.663757 13.150618,263.053101 
	C14.452705,264.278442 15.776038,265.114441 17.318794,266.034576 
	C17.815378,266.300720 17.989233,266.553711 18.080854,267.230988 
	C19.038584,268.061127 19.975233,268.538025 21.152283,269.091797 
	C21.599962,269.424072 21.807240,269.679535 22.113091,270.189301 
	C22.504993,270.651306 22.798326,270.859009 23.152979,271.189331 
	C23.214300,271.311951 23.127033,271.571930 23.235958,271.921814 
	C29.296589,276.243317 34.986515,280.719238 41.298985,283.995789 
	C45.037758,285.936462 49.759491,285.983337 54.365204,286.889435 
	C55.111065,287.005524 55.530956,287.113953 56.052036,287.570312 
	C58.426949,288.046448 60.700668,288.174591 63.307076,288.275879 
	C64.066208,288.360291 64.492661,288.471558 65.097397,288.910095 
	C65.867653,289.478027 66.479439,289.968231 67.048706,289.923035 
	C84.101501,288.569153 101.157288,287.238037 118.185944,285.622284 
	C119.569397,285.490997 120.762711,283.355621 122.353432,282.064148 
	C123.086288,281.920227 123.510078,281.863678 124.131561,282.107147 
	C126.766678,283.583191 128.389877,282.962280 129.361725,280.132843 
	C130.071762,279.939178 130.489685,279.871887 131.124207,280.104370 
	C134.051880,281.427338 136.093307,280.967682 137.098038,277.695984 
	C137.518814,277.355377 137.771164,277.171112 138.323288,276.951172 
	C138.951004,276.667969 139.263626,276.399475 139.680344,276.214325 
	C139.784439,276.297699 140.009888,276.155121 140.380356,276.154816 
	C141.485107,276.071014 142.219391,275.987488 143.129913,276.180420 
	C145.277832,276.372101 147.480530,276.832642 149.182678,276.111572 
	C158.339951,272.232300 167.437271,268.194519 176.413193,263.913483 
	C179.499939,262.441254 182.176376,260.108734 185.333984,258.085999 
	C186.331116,257.618958 187.034500,257.235107 188.069763,256.864227 
	C188.893616,256.515503 189.385605,256.153870 189.920425,255.874649 
	C189.963257,255.957092 189.840012,255.818039 190.210068,255.854553 
	C191.333450,255.203979 192.086777,254.516876 192.881424,253.897430 
	C192.922745,253.965073 192.850708,253.834091 193.271240,253.890091 
	C195.934341,253.225632 198.250885,252.675812 200.401611,251.743454 
	C203.385223,250.450012 206.130859,248.533295 209.187042,247.501419 
	C212.580933,246.355545 214.562683,244.447708 214.967804,240.927887 
	C215.012314,240.962296 214.909821,240.916962 215.306671,240.954178 
	C218.102646,240.035843 220.839279,239.527496 222.827240,238.027161 
	C226.435104,235.304291 229.597397,231.991013 232.975708,228.955505 
	C233.005753,228.986847 232.931473,228.942734 233.335815,228.964661 
	C238.086105,229.046997 240.943695,227.227539 241.723297,222.750046 
	C241.780441,222.788788 241.724472,222.662567 242.105377,222.763168 
	C243.952148,221.525955 245.418030,220.188141 246.949707,218.881744 
	C247.015503,218.913147 246.875076,218.876556 247.249664,218.920105 
	C249.063644,217.615219 250.503006,216.266800 251.974411,214.950592 
	C252.006439,214.982788 251.926788,214.939743 252.250793,214.942719 
	C252.962601,214.515732 253.350418,214.085739 253.695496,213.713593 
	C253.652756,213.771439 253.708221,213.638107 254.076782,213.734360 
	C255.209824,213.028046 255.974304,212.225479 256.854889,211.119827 
	C260.902435,207.529617 265.055359,204.470734 268.722931,200.911758 
	C278.932007,191.005066 288.939575,180.890762 299.236023,170.825089 
	C299.719604,170.616348 299.820374,170.369965 299.892822,169.898392 
	C300.037933,169.744217 300.126984,169.330200 300.429993,169.215790 
	C301.212128,168.425201 301.691284,167.749039 302.170410,167.072876 
	C302.570007,166.640457 302.969604,166.208054 303.803955,165.440094 
	C305.099152,164.005844 305.959625,162.907120 307.361237,161.117447 
	C304.622040,161.117447 302.835785,161.117447 300.808533,160.822906 
	C298.708344,160.988754 296.849121,161.449158 294.623840,161.984436 
	C293.512421,162.075882 292.767120,162.092468 291.752960,161.794907 
	C288.142212,161.191147 284.800262,160.901535 280.621155,160.539368 
	C281.748505,159.316757 282.151276,158.551865 282.777008,158.251648 
	C289.794891,154.884460 296.880707,151.655884 303.840607,148.174774 
	C304.572021,147.808945 304.615601,146.067871 304.988800,144.982971 
	C304.999298,145.001099 304.966064,144.975021 305.390930,144.993927 
	C308.811737,144.662354 312.875610,146.096512 313.090271,140.557617 
	C313.825317,140.139740 314.367157,139.939636 315.092865,140.030518 
	C320.500000,138.337860 325.800018,136.524826 330.886047,134.236252 
	C331.991364,133.738876 332.329865,131.537369 333.163910,130.004684 
	C333.306244,129.888611 333.666779,129.818344 334.084412,129.869965 
	C336.251678,129.574203 338.283905,129.679291 339.698792,128.795776 
	C344.193726,125.988937 348.458588,122.813591 352.825195,119.782898 
	C352.838013,119.785133 352.832428,119.806046 353.260681,119.867821 
	C354.515015,119.942253 355.408081,120.168228 356.156342,119.933167 
	C361.235077,118.337723 362.991638,121.196144 363.670044,125.462662 
	C364.647583,131.610245 365.558228,137.768478 366.488403,143.862915 
	C366.991486,142.562241 367.559998,141.092499 368.321106,139.750732 
	C368.513733,139.878693 368.952942,140.023682 368.952942,140.023682 
	C368.957062,140.469147 368.961182,140.914627 368.952484,141.923721 
	C368.898804,142.656128 368.857971,142.824921 368.622864,143.167511 
	C368.626526,143.895477 368.824463,144.449631 369.190582,145.369690 
	C370.275085,150.967270 371.160889,156.204468 372.113739,161.429459 
	C374.397919,173.954666 376.713562,186.474121 379.016541,198.995880 
	C379.062012,200.062027 379.107483,201.128174 379.207581,202.944290 
	C379.172272,205.853973 379.082336,208.013672 378.992432,210.173386 
	C378.992432,210.173386 378.570557,210.020828 378.309387,209.616394 
	C370.522308,199.635269 363.031097,190.030624 355.390900,180.545944 
	C354.891144,179.925522 353.250702,180.223892 351.806702,180.040024 
	C350.104584,180.474777 348.383606,180.602432 347.437775,181.524887 
	C345.028625,183.874481 342.827576,186.476013 340.811951,189.177246 
	C339.422333,191.039474 338.481293,193.236389 337.342590,195.230255 
	C337.345428,195.176773 337.293304,195.270340 337.014404,195.304169 
	C336.671112,195.667496 336.606720,195.996994 336.512146,196.403915 
	C336.481995,196.481323 336.385681,196.616745 336.017029,196.430847 
	C334.126160,196.985489 332.429871,197.502396 331.123169,198.519760 
	C329.227203,199.995865 327.399536,201.669785 325.942932,203.566605 
	C324.697083,205.189011 324.014282,207.243805 323.048950,209.055969 
	C323.015411,209.004608 323.106873,209.086426 322.725098,209.058716 
	C321.581482,210.045242 320.819611,211.059479 320.031372,212.036835 
	C320.004944,211.999954 320.073853,212.059204 319.661865,212.032730 
	C314.959869,211.858948 312.666382,213.670197 313.159332,218.214874 
	C313.159332,218.214874 313.018341,218.123230 312.707275,218.090668 
	C308.612823,219.001801 304.411285,219.508759 305.060364,225.081833 
	C305.060364,225.081833 305.028015,224.994125 304.650818,224.995972 
	C302.622101,225.492004 300.722687,225.622864 299.365662,226.548691 
	C295.363586,229.279175 291.355652,232.079544 287.765472,235.313721 
	C283.987061,238.717438 280.688446,242.653809 276.974762,246.616669 
	C273.697723,249.320221 270.626129,251.764542 267.204346,254.288712 
	C258.476868,259.801697 250.099594,265.234802 241.722321,270.667938 
	C241.722321,270.667938 241.805984,270.987885 241.395203,270.859314 
	C236.322250,273.504211 231.660080,276.277649 226.997894,279.051086 
z"/>
<path fill="#57B64C" opacity="1.000000" stroke="none" 
	d="
M405.000000,89.531342 
	C403.613403,93.340965 402.277924,96.704254 400.830658,100.018745 
	C396.314026,110.362556 391.772003,120.695419 387.185638,131.008438 
	C386.743713,132.002258 385.924744,132.828400 384.463898,134.879120 
	C381.697113,119.485985 379.140472,105.262085 376.397034,89.999084 
	C363.920013,96.484665 351.914978,102.724907 338.561188,109.666214 
	C342.399078,96.698608 344.879181,84.761665 341.276245,71.942230 
	C340.744415,66.923584 340.198547,62.504646 339.148071,58.209095 
	C333.844574,36.522400 320.531097,22.606169 298.819000,16.800686 
	C295.954376,16.034727 293.328308,14.376314 290.915405,12.830730 
	C293.960693,12.042397 296.679413,11.537318 299.404694,11.070541 
	C304.157227,10.256551 308.913727,9.466148 313.881958,8.768633 
	C314.095306,8.871408 314.562500,8.948072 314.562500,8.948072 
	C314.562500,8.948072 315.031311,8.882001 315.404907,9.013876 
	C334.226654,8.394531 352.459808,9.344694 369.983093,16.009943 
	C369.993744,16.024504 370.028809,16.016275 370.251831,16.265230 
	C372.988556,17.656956 375.502289,18.799726 378.148865,20.057976 
	C378.281738,20.173452 378.633148,20.194675 378.777466,20.504154 
	C387.092468,26.120564 393.387695,33.265301 398.957153,41.534195 
	C401.017487,45.252930 403.008728,48.626469 405.000000,52.000000 
	C405.000000,64.354225 405.000000,76.708458 405.000000,89.531342 
z"/>
<path fill="#FDFEFD" opacity="1.000000" stroke="none" 
	d="
M378.633148,20.194679 
	C378.633148,20.194675 378.281738,20.173452 378.114380,19.692528 
	C376.474548,15.254782 373.092285,16.030489 370.028809,16.016275 
	C370.028809,16.016275 369.993744,16.024504 369.982788,15.610600 
	C368.626160,14.140008 367.406830,12.810419 365.895844,12.110811 
	C364.629639,11.524557 362.565247,12.202544 361.645538,11.406539 
	C357.501953,7.820282 352.660034,7.935312 347.695587,7.997746 
	C340.345154,8.090188 332.991821,8.064654 325.641479,7.962592 
	C324.079102,7.940897 322.524292,7.374563 321.062531,6.657522 
	C323.131073,5.837277 325.086700,5.203149 327.078979,5.052308 
	C329.830261,4.843998 332.609161,5.000058 335.376221,5.000058 
	C335.359589,4.333653 335.342987,3.667248 335.326385,3.000844 
	C330.163269,3.000844 324.994080,3.152377 319.839355,2.944662 
	C316.689484,2.817734 315.645752,4.124323 315.717651,7.256677 
	C315.298218,7.953590 315.164764,8.417797 315.031311,8.882003 
	C315.031311,8.882001 314.562500,8.948072 314.562500,8.948072 
	C314.562500,8.948072 314.095306,8.871408 313.412720,8.559074 
	C306.486450,8.831927 300.242737,9.417114 293.797760,9.742867 
	C292.065002,9.990967 290.533478,10.498503 288.755554,11.019091 
	C288.509094,11.032144 288.016266,11.059122 287.791748,10.781492 
	C284.685516,10.699532 281.683258,10.449696 278.948883,11.189692 
	C274.212646,12.471461 269.642334,14.366461 265.002441,16.004257 
	C265.215729,12.502163 266.100891,9.636314 269.551697,7.585278 
	C270.767090,6.862885 270.564331,3.754439 271.004517,1.367720 
	C273.370575,1.000000 275.741119,1.000000 278.556976,1.388907 
	C280.812439,3.642633 282.622620,5.507452 284.432831,7.372271 
	C284.705109,7.038759 284.977417,6.705247 285.249725,6.371735 
	C284.499817,4.581156 283.749908,2.790578 283.000000,1.000000 
	C284.714355,1.000000 286.428711,1.000000 288.645691,1.366974 
	C291.373871,3.681694 293.405273,4.081507 295.000000,1.000000 
	C331.566772,1.000000 368.133514,1.000000 405.000000,1.000000 
	C405.000000,17.686365 405.000000,34.374523 405.000000,51.531342 
	C403.008728,48.626469 401.017487,45.252930 398.998077,41.122795 
	C398.193420,38.299702 397.726562,36.039619 396.579346,34.204956 
	C393.740173,29.664600 390.885498,25.027132 385.520416,22.914829 
	C383.223694,22.010586 380.928833,21.101545 378.633148,20.194679 
M299.084900,6.368980 
	C299.660309,6.119053 300.235687,5.869126 300.811096,5.619192 
	C300.331116,5.140650 299.851135,4.662107 299.371155,4.183575 
	C299.120605,4.757851 298.870056,5.332128 299.084900,6.368980 
z"/>
<path fill="#D2F4CF" opacity="1.000000" stroke="none" 
	d="
M0.999997,273.454102 
	C2.609067,276.697052 4.301738,280.360321 5.812371,284.097168 
	C11.571688,298.343994 21.669329,308.331329 35.557484,314.656494 
	C37.063965,315.342590 38.503498,316.175659 40.151440,317.207458 
	C32.283421,316.846313 26.212887,312.218964 19.913090,307.789093 
	C12.220882,302.380066 8.339461,294.526093 4.683226,286.357910 
	C4.098474,285.051575 2.750167,284.086975 1.377423,282.982208 
	C1.000000,279.969391 1.000000,276.938812 0.999997,273.454102 
z"/>
<path fill="#FFFFFF" opacity="1.000000" stroke="none" 
	d="
M282.600006,1.000000 
	C283.749908,2.790578 284.499817,4.581156 285.249725,6.371735 
	C284.977417,6.705247 284.705109,7.038759 284.432831,7.372271 
	C282.622620,5.507452 280.812439,3.642633 279.001129,1.388907 
	C280.066681,1.000000 281.133331,1.000000 282.600006,1.000000 
z"/>
<path fill="#6EB46A" opacity="1.000000" stroke="none" 
	d="
M6.106369,251.878830 
	C4.655040,251.587463 3.203712,251.296097 1.376191,251.002380 
	C1.000000,249.933334 1.000000,248.866653 0.999998,247.399994 
	C1.322557,246.836807 1.645118,246.673630 2.362424,246.434143 
	C3.873569,248.198181 4.989970,250.038498 6.106369,251.878830 
z"/>
<path fill="#FAF7F3" opacity="1.000000" stroke="none" 
	d="
M294.571533,1.000000 
	C293.405273,4.081507 291.373871,3.681694 289.074158,1.366974 
	C290.714355,1.000000 292.428711,1.000000 294.571533,1.000000 
z"/>
<path fill="#A63D40" opacity="1.000000" stroke="none" 
	d="
M6.094407,251.894699 
	C4.989970,250.038498 3.873569,248.198181 2.488662,246.182037 
	C3.317891,241.592499 4.161207,237.096481 5.557518,232.779312 
	C11.520712,214.342026 20.819275,197.552963 31.327387,181.378754 
	C33.317883,178.314972 35.210232,175.187424 37.531540,171.708298 
	C40.085209,168.602020 42.255207,165.876740 44.688854,162.990173 
	C46.213917,161.477097 47.475334,160.125275 48.845116,158.870789 
	C48.953476,158.968140 49.167923,159.165344 49.109764,159.517700 
	C48.664593,160.959763 48.496872,162.203949 47.855450,163.114456 
	C43.222683,169.690628 38.469879,176.182083 33.804630,182.735626 
	C30.848892,186.887741 27.516638,190.859741 25.179022,195.343094 
	C21.770473,201.880386 19.078579,208.793594 16.129248,215.567474 
	C12.916791,222.945663 9.930559,230.428268 6.509922,237.707550 
	C4.628309,241.711716 5.473980,245.033493 7.683290,248.398804 
	C10.030681,251.974426 12.095941,255.780563 14.798846,259.062317 
	C16.752625,261.434509 19.546959,263.114410 21.966427,265.103058 
	C22.376705,264.798859 22.786983,264.494690 23.197262,264.190491 
	C22.859081,262.125854 22.391342,260.072357 22.212036,257.994019 
	C21.917625,254.581482 21.216322,251.060593 21.730717,247.747482 
	C23.595667,235.735748 26.378895,224.011780 32.775494,213.352737 
	C37.432327,205.592773 40.996445,197.168106 45.777012,189.494080 
	C49.918365,182.846130 54.974083,176.748032 59.884644,170.614243 
	C60.980824,169.245026 63.159233,168.742188 64.936859,167.935455 
	C65.034348,168.030457 65.229729,168.220032 65.119888,168.537506 
	C63.854401,170.491714 62.698753,172.128464 61.543106,173.765213 
	C61.406300,173.889648 61.269497,174.014069 60.754555,174.495972 
	C58.073788,177.942398 55.771164,181.031357 53.468544,184.120331 
	C53.468544,184.120331 53.293480,184.307373 52.977249,184.584183 
	C51.902046,186.131897 51.143074,187.402802 50.384109,188.673706 
	C49.916119,189.166946 49.448124,189.660172 48.613518,190.597290 
	C44.791431,197.016022 41.335957,202.990845 37.880482,208.965683 
	C30.595627,221.000565 25.248587,233.733093 24.059557,247.919907 
	C23.348093,256.408661 24.990400,264.439178 28.789680,272.330933 
	C26.688562,272.345123 24.907797,271.958527 23.127033,271.571930 
	C23.127033,271.571930 23.214300,271.311951 23.072170,270.919678 
	C22.624861,270.329956 22.319683,270.132477 22.014511,269.934967 
	C21.807240,269.679535 21.599962,269.424072 21.046812,268.792908 
	C19.820553,267.904053 18.940165,267.390869 18.059776,266.877716 
	C17.989233,266.553711 17.815378,266.300720 17.180483,265.732544 
	C15.605790,264.452148 14.388829,263.557953 13.171865,262.663757 
	C13.171863,262.663757 13.195179,262.322449 13.049435,261.908020 
	C12.619606,261.287415 12.335521,261.081268 12.051433,260.875122 
	C12.011574,260.560059 11.866439,260.304840 11.363396,259.694641 
	C10.418794,258.511200 9.726821,257.742645 9.034845,256.974091 
	C9.034842,256.974091 9.001937,256.999847 8.929768,256.663239 
	C7.934614,254.866150 7.011630,253.405670 6.088645,251.945190 
	C6.088644,251.945190 6.082443,251.910568 6.094407,251.894699 
z"/>
<path fill="#A63D40" opacity="1.000000" stroke="none" 
	d="
M152.699432,96.838013 
	C144.889038,101.967186 137.078644,107.096359 128.741455,112.578812 
	C121.641113,117.961113 115.067581,122.990120 108.494057,128.019135 
	C108.494057,128.019135 108.251129,128.184265 107.869431,128.388763 
	C101.278191,134.020218 95.068642,139.447174 88.859085,144.874115 
	C88.859085,144.874115 88.984131,144.993820 88.667419,145.006851 
	C87.829254,145.532822 87.307793,146.045761 86.526428,146.678650 
	C85.911690,147.226410 85.556854,147.654266 84.918343,148.243790 
	C83.781425,149.369843 82.928169,150.334229 82.074921,151.298615 
	C82.074921,151.298615 81.679344,151.282150 81.370468,151.167816 
	C81.061592,151.053497 80.841461,150.842117 80.901489,150.492798 
	C83.708702,146.928421 85.951637,143.000397 89.298523,140.633209 
	C98.969971,133.792801 106.411980,124.400558 116.857643,118.321823 
	C127.495171,112.131416 137.159668,104.261299 147.196976,97.052521 
	C149.722778,95.238487 151.793274,92.648705 154.505737,91.261688 
	C164.543915,86.128693 174.772232,81.368370 184.910782,76.430458 
	C190.775650,73.574020 196.467331,70.310860 202.483582,67.828415 
	C211.461578,64.123886 220.596527,60.770908 229.779831,57.602036 
	C236.884552,55.150421 244.056473,52.669106 251.397552,51.186600 
	C259.638062,49.522457 268.128662,49.141319 276.463257,47.888245 
	C289.827148,45.879036 303.092499,46.237713 316.219788,49.312679 
	C322.953156,50.889927 329.929504,52.367790 333.978027,59.314835 
	C333.932526,59.850498 333.908264,60.064220 333.567535,60.130875 
	C328.833923,57.652962 324.416748,55.322121 319.999573,52.991276 
	C319.732544,52.776390 319.429016,52.647369 318.550110,52.384830 
	C313.673981,51.205780 309.336700,50.246105 304.999451,49.286434 
	C303.298218,49.133812 301.596985,48.981190 299.305969,48.687218 
	C298.125916,48.655476 297.535614,48.765087 296.945312,48.874699 
	C291.281647,48.935570 285.617981,48.996445 279.109863,49.069313 
	C277.011139,49.307247 275.756897,49.533184 274.502625,49.759121 
	C274.157471,49.745285 273.812347,49.731449 272.796936,49.767918 
	C265.956482,50.959526 259.596558,51.495239 253.652298,53.357655 
	C236.978638,58.581772 220.476456,64.353203 203.906631,69.908745 
	C203.906631,69.908745 204.008377,69.977455 203.594193,69.943932 
	C199.089722,71.853096 194.999451,73.795776 190.909164,75.738464 
	C190.366592,75.939171 189.824005,76.139877 188.743225,76.581581 
	C186.414291,77.825043 184.623550,78.827522 182.832809,79.829987 
	C182.832809,79.829987 183.010010,79.867371 182.575134,79.846069 
	C179.723465,81.131882 177.306702,82.439003 174.603897,83.810669 
	C174.042267,84.141190 173.766678,84.407150 173.491089,84.673111 
	C173.491089,84.673103 173.193405,84.675972 172.792877,84.804260 
	C172.107452,85.211723 171.822540,85.490891 171.537643,85.770065 
	C171.537643,85.770065 171.224213,85.793083 170.802704,85.903564 
	C169.519989,86.597908 168.658813,87.181778 167.797638,87.765640 
	C167.797638,87.765648 167.831955,87.931747 167.463867,87.903061 
	C163.958420,89.851616 160.821091,91.828850 157.683746,93.806084 
	C157.408234,93.859123 157.162827,93.975632 156.476669,94.364655 
	C154.903656,95.328476 153.801544,96.083244 152.699432,96.838013 
z"/>
<path fill="#A33936" opacity="1.000000" stroke="none" 
	d="
M333.883972,60.277946 
	C333.908264,60.064220 333.932526,59.850498 334.338623,59.313503 
	C338.457855,58.577301 336.164886,56.304478 335.718903,55.041145 
	C334.660034,52.041439 333.235962,49.168221 331.913422,46.264862 
	C331.090454,44.458229 330.435059,42.504124 329.275208,40.933109 
	C317.411682,24.863955 300.972778,16.778616 281.474365,17.369328 
	C270.609772,17.698479 259.656891,21.335663 249.124969,24.681782 
	C238.516800,28.052126 228.377350,32.900097 218.039474,37.117653 
	C214.198807,38.684528 210.261261,40.069649 206.571701,41.939747 
	C198.384979,46.089287 190.324188,50.487556 182.218445,54.796410 
	C179.608429,56.183846 177.067245,57.710022 174.408218,58.993858 
	C170.017044,61.113995 165.555695,63.088772 161.003510,64.990074 
	C160.883118,64.855339 160.647186,64.581573 160.647186,64.581573 
	C160.668640,64.281494 160.800797,64.042641 161.509766,63.641602 
	C163.467789,62.362846 164.959656,61.307518 166.451538,60.252190 
	C166.451538,60.252190 166.774750,60.211521 167.230911,60.078732 
	C171.940674,57.383816 176.194260,54.821690 180.447861,52.259560 
	C180.447861,52.259563 180.781693,52.213284 181.163757,52.071854 
	C181.805511,51.680031 182.065216,51.429634 182.324905,51.179241 
	C183.141296,50.713284 183.957687,50.247318 185.320068,49.553780 
	C186.839615,48.783443 187.813156,48.240685 188.786697,47.697926 
	C188.786697,47.697929 189.058365,47.701332 189.535858,47.585472 
	C200.774918,42.361259 211.536499,37.252903 222.639618,32.118103 
	C224.415634,31.436678 225.850113,30.781704 227.487564,30.132097 
	C227.690552,30.137465 228.004913,29.880356 228.305725,29.890179 
	C228.919983,29.665409 229.233414,29.430817 229.679626,29.233994 
	C229.812393,29.271765 229.994492,29.064243 230.269135,29.059174 
	C230.687332,28.940439 230.830902,28.826771 231.258453,28.723978 
	C232.024704,28.475796 232.506973,28.216734 233.295746,27.965588 
	C234.109039,27.687567 234.615814,27.401630 235.123291,27.091824 
	C235.123978,27.067955 235.076859,27.068506 235.076859,27.068506 
	C235.245880,27.065832 235.414917,27.063158 236.069092,26.949203 
	C236.845963,26.625530 237.137680,26.413132 237.429398,26.200737 
	C237.796997,26.153780 238.164612,26.106823 239.062836,25.967190 
	C240.086288,25.594313 240.579086,25.314112 241.071899,25.033907 
	C241.071899,25.033905 241.554932,25.009712 242.079208,24.963741 
	C243.109711,24.631819 243.615936,24.345863 244.122147,24.059906 
	C244.122147,24.059904 244.574127,24.046373 245.077728,23.981943 
	C246.101852,23.633060 246.622375,23.348606 247.376648,23.051147 
	C247.610413,23.038143 248.013321,22.799591 248.299850,22.828381 
	C249.081406,22.591406 249.576447,22.325638 250.047287,22.030880 
	C250.023087,22.001890 250.026886,22.077320 250.376892,22.121563 
	C251.340561,21.852016 251.954254,21.538227 252.821198,21.269833 
	C253.384766,21.179811 253.695099,21.044397 254.359100,20.952015 
	C256.219543,20.441355 257.726288,19.887667 259.242859,19.324203 
	C259.252716,19.314426 259.281738,19.328524 259.281738,19.328526 
	C259.684326,19.277300 260.086914,19.226076 261.076355,19.060274 
	C262.232910,18.678438 262.802551,18.411180 263.372223,18.143929 
	C263.753235,18.147079 264.134247,18.150225 265.139832,18.009754 
	C273.143463,16.261513 280.522522,14.656881 288.237518,13.136331 
	C289.246216,13.190685 289.918976,13.160959 290.591766,13.131231 
	C293.328308,14.376314 295.954376,16.034727 298.819000,16.800686 
	C320.531097,22.606169 333.844574,36.522400 339.148071,58.209095 
	C340.198547,62.504646 340.744415,66.923584 341.283295,71.517685 
	C340.747528,71.191162 340.451477,70.632576 340.100250,69.476402 
	C339.382355,67.583214 338.719635,66.287621 338.056946,64.992027 
	C338.056946,64.992027 337.697937,64.915962 337.483521,64.565254 
	C337.181427,63.801022 337.093719,63.387493 336.956482,62.642792 
	C336.211792,61.898445 335.516693,61.485275 334.604218,61.024391 
	C334.097748,60.831184 333.930145,60.598274 333.883972,60.277946 
z"/>
<path fill="#E5FAE1" opacity="1.000000" stroke="none" 
	d="
M352.140869,180.094879 
	C353.250702,180.223892 354.891144,179.925522 355.390900,180.545944 
	C363.031097,190.030624 370.522308,199.635269 378.092590,209.558823 
	C371.523834,207.642639 368.383057,201.614243 364.160400,196.821030 
	C360.519958,192.688690 357.299377,188.186432 353.611694,183.489212 
	C349.273621,188.323654 345.644592,192.668961 341.686096,196.689911 
	C338.125275,200.306931 334.126495,203.489212 330.478058,207.025391 
	C329.041779,208.417465 328.068573,210.278397 326.811218,211.867874 
	C326.231537,212.600693 325.542694,213.286667 324.787445,213.833893 
	C322.320862,215.621063 319.782013,217.308319 317.309937,219.088150 
	C316.148560,219.924332 315.069702,222.346664 314.120728,218.407089 
	C316.201721,215.854736 318.137787,213.956970 320.073853,212.059204 
	C320.073853,212.059204 320.004944,211.999954 320.335205,211.933990 
	C321.479248,210.940842 322.293060,210.013641 323.106873,209.086426 
	C323.106873,209.086426 323.015411,209.004608 323.385254,209.004410 
	C327.965302,204.875061 332.175507,200.745911 336.385681,196.616760 
	C336.385681,196.616745 336.481995,196.481323 336.724823,196.308746 
	C337.218475,195.901199 337.327026,195.612595 337.293304,195.270340 
	C337.293304,195.270340 337.345428,195.176773 337.655609,195.141296 
	C342.690826,190.102188 347.415833,185.098526 352.140869,180.094879 
z"/>
<path fill="#E2F8DF" opacity="1.000000" stroke="none" 
	d="
M333.666779,129.818344 
	C333.666779,129.818344 333.306244,129.888611 332.810852,130.008026 
	C326.513306,133.331467 320.711121,136.535507 314.908966,139.739532 
	C314.367157,139.939636 313.825317,140.139740 312.734406,140.597427 
	C309.778900,142.228348 307.372467,143.601685 304.966064,144.975021 
	C304.966064,144.975021 304.999298,145.001099 304.628906,145.017731 
	C302.629028,145.824692 300.983521,146.583862 299.372681,147.410522 
	C290.573639,151.926132 281.783142,156.458374 272.989716,160.984894 
	C272.725006,156.184830 277.076874,155.656021 279.861145,154.063538 
	C284.428131,151.451447 289.424194,149.602570 294.151581,147.255173 
	C302.254852,143.231491 311.215240,140.195129 318.035645,134.581482 
	C322.736145,130.712692 331.002228,131.503281 332.674591,123.710129 
	C332.766052,123.283760 334.875122,122.858124 335.852783,123.128181 
	C340.344971,124.369057 343.490173,121.921738 346.964417,119.768814 
	C351.475128,116.973618 355.344055,112.472870 361.570129,113.995216 
	C358.690857,116.303444 355.761658,118.054741 352.832428,119.806046 
	C352.832428,119.806046 352.838013,119.785133 352.471741,119.820145 
	C345.959229,123.176216 339.812988,126.497284 333.666779,129.818344 
z"/>
<path fill="#E1F9DE" opacity="1.000000" stroke="none" 
	d="
M300.126984,169.330200 
	C300.126984,169.330200 300.037933,169.744217 299.733582,169.992920 
	C299.233521,170.407059 299.099365,170.612656 299.026703,170.858429 
	C288.939575,180.890762 278.932007,191.005066 268.722931,200.911758 
	C265.055359,204.470734 260.902435,207.529617 256.532166,211.209518 
	C255.298294,212.280914 254.503250,212.959503 253.708221,213.638092 
	C253.708221,213.638107 253.652756,213.771439 253.397598,213.738220 
	C252.737228,214.116577 252.332001,214.528152 251.926788,214.939743 
	C251.926788,214.939743 252.006439,214.982788 251.649261,215.009415 
	C249.819748,216.316208 248.347412,217.596390 246.875076,218.876556 
	C246.875076,218.876556 247.015503,218.913147 246.615265,218.927200 
	C244.718155,220.181686 243.221313,221.422119 241.724472,222.662567 
	C241.724472,222.662567 241.780441,222.788788 241.408478,222.850449 
	C238.334839,224.922318 235.633148,226.932526 232.931473,228.942719 
	C232.931473,228.942734 233.005753,228.986847 232.645935,229.010162 
	C230.923767,229.773315 229.561386,230.513184 228.116455,231.149048 
	C228.033875,231.045044 227.866241,230.839081 227.866241,230.839081 
	C228.473587,229.515167 228.726562,227.717194 229.751068,226.951340 
	C233.690536,224.006454 237.996033,221.550812 241.931534,218.601166 
	C244.764481,216.477905 247.095001,213.691422 249.889816,211.508224 
	C253.042236,209.045670 256.764618,207.260986 259.713806,204.599365 
	C269.953339,195.358261 279.998322,185.900070 290.043976,176.446533 
	C293.235748,173.442917 296.198578,170.196060 299.641937,167.440186 
	C300.054138,168.323303 300.090546,168.826752 300.126984,169.330200 
z"/>
<path fill="#E3F9DF" opacity="1.000000" stroke="none" 
	d="
M55.950848,287.222382 
	C55.530956,287.113953 55.111065,287.005524 54.093002,286.650726 
	C44.901211,283.847931 36.549084,280.879486 30.960026,273.196716 
	C33.576981,274.240021 36.837189,274.624329 38.698826,276.441467 
	C46.493607,284.049835 56.086807,285.200714 66.173729,285.137543 
	C72.168266,285.100006 78.186165,285.381012 84.151535,284.944427 
	C91.945992,284.373962 99.716049,283.361267 107.464508,282.303650 
	C114.343224,281.364777 121.178101,280.104736 128.836868,278.985321 
	C130.116104,278.998535 130.590805,279.012878 131.007507,279.217773 
	C130.949524,279.408356 130.907593,279.804596 130.907593,279.804596 
	C130.489685,279.871887 130.071762,279.939178 129.014404,280.101196 
	C126.894585,280.732971 125.414223,281.270050 123.933868,281.807129 
	C123.510078,281.863678 123.086288,281.920227 121.961380,282.036896 
	C112.359772,283.750641 103.516281,285.909790 94.543427,286.921783 
	C84.731026,288.028473 74.798996,288.074463 64.919113,288.582794 
	C64.492661,288.471558 64.066208,288.360291 62.927872,288.149475 
	C60.127609,287.774078 58.039230,287.498230 55.950848,287.222382 
z"/>
<path fill="#DBF8D8" opacity="1.000000" stroke="none" 
	d="
M107.285355,321.304199 
	C111.201485,320.187347 115.387512,319.327362 119.583412,318.518616 
	C143.326477,313.941986 166.222015,306.656494 188.400009,297.058838 
	C189.608398,296.535919 190.920959,296.253723 192.585449,296.128632 
	C192.990036,296.566437 192.994217,296.735107 192.998383,296.903809 
	C183.921875,301.119293 175.026932,305.808228 165.704773,309.383148 
	C159.532516,311.750061 152.736237,312.471893 146.243134,314.029449 
	C143.859100,314.601288 141.569031,315.558319 139.191803,316.166443 
	C132.753448,317.813477 126.341743,319.636719 119.819931,320.858917 
	C115.828079,321.606964 111.652748,321.376007 107.285355,321.304199 
z"/>
<path fill="#FAE6E5" opacity="1.000000" stroke="none" 
	d="
M204.287460,69.991394 
	C220.476456,64.353203 236.978638,58.581772 253.652298,53.357655 
	C259.596558,51.495239 265.956482,50.959526 272.559082,49.883278 
	C271.109497,50.940071 269.331238,52.408939 267.328339,52.844395 
	C256.182770,55.267551 244.959076,57.206936 234.319504,61.690495 
	C229.995193,63.512779 224.987762,63.648193 220.474915,65.116089 
	C218.141296,65.875145 216.209488,67.869469 214.048065,69.652847 
	C214.000000,70.000000 214.004013,69.994705 214.004013,69.994705 
	C210.892105,70.021156 207.780197,70.047600 204.287460,69.991394 
z"/>
<path fill="#E7FAE4" opacity="1.000000" stroke="none" 
	d="
M379.343506,198.821030 
	C376.713562,186.474121 374.397919,173.954666 372.113739,161.429459 
	C371.160889,156.204468 370.275085,150.967270 369.216309,145.029846 
	C368.988281,143.880615 368.902710,143.437164 368.817139,142.993698 
	C368.857971,142.824921 368.898804,142.656128 369.041107,142.247452 
	C370.299774,145.760223 371.699463,149.458023 372.563354,153.277023 
	C374.326477,161.071503 375.812286,168.928970 377.391022,176.764771 
	C378.587341,182.702606 379.862244,188.628860 380.838074,194.603394 
	C381.042328,195.854065 380.089905,197.293640 379.343506,198.821030 
z"/>
<path fill="#E1F9DC" opacity="1.000000" stroke="none" 
	d="
M187.737900,256.851288 
	C187.034500,257.235107 186.331116,257.618958 184.994553,258.002655 
	C183.897018,257.977203 183.432678,257.951904 182.968323,257.926605 
	C186.753647,254.990616 190.359100,251.774994 194.372452,249.193497 
	C198.813126,246.337128 203.738342,244.242950 208.248993,241.484055 
	C213.353409,238.361984 218.183838,234.794266 223.248550,231.603043 
	C224.265732,230.962112 225.799683,231.141312 227.480804,230.890717 
	C227.866241,230.839081 228.033875,231.045044 227.912720,231.413940 
	C223.497635,234.827545 219.203735,237.872253 214.909821,240.916962 
	C214.909821,240.916962 215.012314,240.962296 214.612915,240.950867 
	C207.092575,245.237671 199.971649,249.535889 192.850708,253.834106 
	C192.850708,253.834091 192.922745,253.965073 192.586212,253.993439 
	C191.446457,254.620560 190.643234,255.219299 189.840027,255.818054 
	C189.840012,255.818039 189.963257,255.957092 189.603241,255.911667 
	C188.741455,256.194580 188.239685,256.522949 187.737900,256.851288 
z"/>
<path fill="#E1FADD" opacity="1.000000" stroke="none" 
	d="
M267.554565,254.208862 
	C270.626129,251.764542 273.697723,249.320221 277.315125,246.528290 
	C286.886353,239.451004 295.911713,232.721359 304.937103,225.991730 
	C306.857239,228.767700 305.028625,229.830521 302.900146,231.221619 
	C300.586243,232.733917 298.724670,234.919159 296.519928,236.622086 
	C293.064117,239.291306 289.546875,241.891068 285.945312,244.359238 
	C280.247131,248.264221 274.457733,252.036072 268.270721,255.453110 
	C267.741211,254.764267 267.647888,254.486557 267.554565,254.208862 
z"/>
<path fill="#6DB366" opacity="1.000000" stroke="none" 
	d="
M272.994507,160.991180 
	C281.783142,156.458374 290.573639,151.926132 299.372681,147.410522 
	C300.983521,146.583862 302.629028,145.824692 304.618408,144.999603 
	C304.615601,146.067871 304.572021,147.808945 303.840607,148.174774 
	C296.880707,151.655884 289.794891,154.884460 282.777008,158.251648 
	C282.151276,158.551865 281.748505,159.316757 280.621155,160.539368 
	C284.800262,160.901535 288.142212,161.191147 291.616791,161.988647 
	C291.473480,162.654602 291.216858,162.839584 290.979614,163.051453 
	C290.546173,163.034897 290.112762,163.018326 288.933533,163.024872 
	C285.123871,163.423019 282.060028,163.798050 278.996185,164.173080 
	C277.948608,164.187195 276.901062,164.201309 275.098907,164.190735 
	C272.571381,164.446487 270.798462,164.726929 269.025513,165.007385 
	C269.025513,165.007385 268.558289,164.912277 268.385376,164.607117 
	C269.806366,163.199402 271.400238,162.096817 272.994141,160.994247 
	C272.994141,160.994247 272.999329,160.997482 272.994507,160.991180 
z"/>
<path fill="#DBF8D8" opacity="1.000000" stroke="none" 
	d="
M49.043621,320.547577 
	C66.984398,323.647400 85.077507,323.786255 103.641632,321.197021 
	C103.895523,325.742706 100.781639,324.841949 97.938217,324.817352 
	C88.280792,324.733704 78.622131,324.801819 68.963982,324.787445 
	C64.233223,324.780426 59.399731,326.059692 55.006458,322.778290 
	C53.451893,321.617126 51.118244,321.499054 49.043621,320.547577 
z"/>
<path fill="#DCF6D8" opacity="1.000000" stroke="none" 
	d="
M193.410339,296.923096 
	C192.994217,296.735107 192.990036,296.566437 192.975220,296.144897 
	C197.047318,293.791138 201.117493,291.665405 205.215698,289.595215 
	C211.556030,286.392456 217.915497,283.227600 224.626038,280.010925 
	C223.951279,284.496582 220.359680,285.666412 216.538727,287.206879 
	C211.283493,289.325562 206.487335,292.555695 201.335739,294.971069 
	C199.030029,296.052124 196.338654,296.310608 193.410339,296.923096 
z"/>
<path fill="#E7FAE4" opacity="1.000000" stroke="none" 
	d="
M144.952332,274.616150 
	C146.134827,273.195648 147.037415,271.131073 148.551300,270.473206 
	C153.455490,268.342072 158.667511,266.925690 163.599487,264.850220 
	C167.498657,263.209351 171.100891,260.874084 174.955429,259.110413 
	C176.534637,258.387848 178.430679,258.357819 180.599548,258.285187 
	C181.026260,258.740631 181.036026,258.923615 180.798676,259.345825 
	C168.685165,264.595367 156.818756,269.605743 144.952332,274.616150 
z"/>
<path fill="#6EB46A" opacity="1.000000" stroke="none" 
	d="
M144.657593,274.754578 
	C156.818756,269.605743 168.685165,264.595367 181.062164,259.278137 
	C181.818314,258.713715 182.063858,258.456207 182.309418,258.198700 
	C182.309418,258.198700 182.671234,258.140900 182.819778,258.033752 
	C183.432678,257.951904 183.897018,257.977203 184.700806,258.085876 
	C182.176376,260.108734 179.499939,262.441254 176.413193,263.913483 
	C167.437271,268.194519 158.339951,272.232300 149.182678,276.111572 
	C147.480530,276.832642 145.277832,276.372101 143.155716,275.964478 
	C143.005280,275.472107 143.074539,275.042358 143.074539,275.042358 
	C143.503967,274.992584 143.933411,274.942780 144.657593,274.754578 
z"/>
<path fill="#6DB366" opacity="1.000000" stroke="none" 
	d="
M353.260681,119.867813 
	C355.761658,118.054741 358.690857,116.303444 361.809845,114.267273 
	C362.446106,113.963303 362.892609,113.944199 363.715637,114.358551 
	C365.437592,123.068916 366.783051,131.345840 368.128479,139.622772 
	C367.559998,141.092499 366.991486,142.562241 366.488403,143.862915 
	C365.558228,137.768478 364.647583,131.610245 363.670044,125.462662 
	C362.991638,121.196144 361.235077,118.337723 356.156342,119.933167 
	C355.408081,120.168228 354.515015,119.942253 353.260681,119.867813 
z"/>
<path fill="#E1F8DB" opacity="1.000000" stroke="none" 
	d="
M267.204346,254.288727 
	C267.647888,254.486557 267.741211,254.764267 267.910645,255.473572 
	C262.391785,263.145660 252.742065,264.575226 246.431015,270.859894 
	C245.749130,271.538910 243.796860,270.942230 242.078110,270.802612 
	C250.099594,265.234802 258.476868,259.801697 267.204346,254.288727 
z"/>
<path fill="#F8E6E3" opacity="1.000000" stroke="none" 
	d="
M108.770096,128.281738 
	C115.067581,122.990120 121.641113,117.961113 128.557190,112.864182 
	C127.858078,114.785614 127.232887,117.236183 125.669556,118.647797 
	C123.707779,120.419189 120.835396,120.942482 120.381500,124.434677 
	C120.253853,125.416771 117.448364,126.038361 115.883774,126.849648 
	C114.299675,127.671028 112.731209,128.522552 110.714050,129.596039 
	C110.659637,129.561722 109.852882,129.053024 108.770096,128.281738 
z"/>
<path fill="#6EB367" opacity="1.000000" stroke="none" 
	d="
M304.983307,225.761124 
	C295.911713,232.721359 286.886353,239.451004 277.520569,246.269043 
	C280.688446,242.653809 283.987061,238.717438 287.765472,235.313721 
	C291.355652,232.079544 295.363586,229.279175 299.365662,226.548691 
	C300.722687,225.622864 302.622101,225.492004 304.681885,225.030945 
	C305.090149,225.064056 305.029510,225.530518 304.983307,225.761124 
z"/>
<path fill="#6EB46A" opacity="1.000000" stroke="none" 
	d="
M30.670788,273.113220 
	C36.549084,280.879486 44.901211,283.847931 53.767029,286.643066 
	C49.759491,285.983337 45.037758,285.936462 41.298985,283.995789 
	C34.986515,280.719238 29.296589,276.243317 23.235958,271.921814 
	C24.907797,271.958527 26.688562,272.345123 28.851973,272.693176 
	C29.616928,272.779694 29.999239,272.904694 30.670788,273.113220 
z"/>
<path fill="#F8E6E3" opacity="1.000000" stroke="none" 
	d="
M89.267227,144.915649 
	C95.068642,139.447174 101.278191,134.020218 107.778763,128.504303 
	C109.938866,133.159210 105.550957,134.028381 103.199379,135.982452 
	C100.553452,138.181107 96.738884,139.151245 96.031578,143.633224 
	C96.000000,144.000000 96.005630,143.992615 96.005630,143.992615 
	C93.895546,144.314133 91.785461,144.635651 89.267227,144.915649 
z"/>
<path fill="#E7FAE4" opacity="1.000000" stroke="none" 
	d="
M368.321106,139.750732 
	C366.783051,131.345840 365.437592,123.068916 364.049072,114.393303 
	C365.612000,115.339523 368.427032,116.534233 368.615967,118.055176 
	C369.459106,124.841827 369.557404,131.721390 369.899017,138.568649 
	C369.914001,138.869019 369.676392,139.181992 369.254700,139.756378 
	C368.952942,140.023682 368.513733,139.878693 368.321106,139.750732 
z"/>
<path fill="#FAE1DF" opacity="1.000000" stroke="none" 
	d="
M38.261932,208.970612 
	C41.335957,202.990845 44.791431,197.016022 48.538124,190.847794 
	C47.664928,198.001770 45.312794,204.688797 38.261932,208.970612 
z"/>
<path fill="#E1F8DB" opacity="1.000000" stroke="none" 
	d="
M227.057770,279.403442 
	C231.660080,276.277649 236.322250,273.504211 241.338409,270.703857 
	C239.030563,275.712891 235.030258,279.200684 229.558670,280.817596 
	C228.906525,281.010315 227.938995,280.135712 227.057770,279.403442 
z"/>
<path fill="#FAE6E5" opacity="1.000000" stroke="none" 
	d="
M333.567535,60.130875 
	C333.930145,60.598274 334.097748,60.831184 334.736511,61.291920 
	C335.726135,62.062767 336.366058,62.518368 337.006042,62.973969 
	C337.093719,63.387493 337.181427,63.801022 337.303497,64.529854 
	C336.842438,64.871735 336.191315,65.117271 335.874786,64.892227 
	C330.647430,61.175571 325.462189,57.399742 320.133545,53.314224 
	C324.416748,55.322121 328.833923,57.652962 333.567535,60.130875 
z"/>
<path fill="#E7FAE4" opacity="1.000000" stroke="none" 
	d="
M379.031616,210.520386 
	C379.082336,208.013672 379.172272,205.853973 379.344940,203.320923 
	C385.611145,207.891113 386.026031,209.296951 382.471039,215.481171 
	C381.211121,213.771530 380.140991,212.319458 379.031616,210.520386 
z"/>
<path fill="#DFF7DB" opacity="1.000000" stroke="none" 
	d="
M291.062836,163.419983 
	C291.216858,162.839584 291.473480,162.654602 291.885620,162.302765 
	C292.767120,162.092468 293.512421,162.075882 295.016846,162.051468 
	C297.533813,161.734909 299.291687,161.426178 301.049530,161.117447 
	C302.835785,161.117447 304.622040,161.117447 307.361237,161.117447 
	C305.959625,162.907120 305.099152,164.005844 303.928955,165.168549 
	C301.735626,164.859604 299.866333,164.357895 297.964783,164.147186 
	C295.706360,163.896927 293.420197,163.896942 291.062836,163.419983 
z"/>
<path fill="#FAE1DF" opacity="1.000000" stroke="none" 
	d="
M61.938736,173.831650 
	C62.698753,172.128464 63.854401,170.491714 65.409332,168.379532 
	C67.809166,165.828751 69.809708,163.753403 71.810257,161.678055 
	C72.035095,167.127090 68.597572,171.560089 61.938736,173.831650 
z"/>
<path fill="#FAE6E5" opacity="1.000000" stroke="none" 
	d="
M191.107452,76.044792 
	C194.999451,73.795776 199.089722,71.853096 203.550903,69.900093 
	C203.193588,70.925598 202.683838,72.498360 201.697464,72.899666 
	C198.323898,74.272209 194.782867,75.233170 191.107452,76.044792 
z"/>
<path fill="#A63D40" opacity="1.000000" stroke="none" 
	d="
M71.896225,161.470230 
	C69.809708,163.753403 67.809166,165.828751 65.519173,168.062073 
	C65.229729,168.220032 65.034348,168.030457 64.996101,167.590149 
	C67.800522,162.626617 70.271118,157.746246 75.904556,155.902802 
	C75.982742,155.978928 76.140022,156.130234 76.006424,156.426941 
	C74.834854,158.091507 73.796890,159.459396 72.758926,160.827286 
	C72.456879,160.895325 72.197975,161.040359 71.896225,161.470230 
z"/>
<path fill="#FAE1DF" opacity="1.000000" stroke="none" 
	d="
M53.799049,184.343872 
	C55.771164,181.031357 58.073788,177.942398 60.649872,174.752869 
	C61.429585,175.019852 61.935833,175.387421 62.442085,175.754990 
	C59.671246,178.692474 56.900406,181.629959 53.799049,184.343872 
z"/>
<path fill="#F2CACA" opacity="1.000000" stroke="none" 
	d="
M73.142761,160.852539 
	C73.796890,159.459396 74.834854,158.091507 76.301056,156.299072 
	C78.175102,154.623795 79.620895,153.373077 81.066696,152.122360 
	C80.879372,157.044006 78.443520,160.029251 73.142761,160.852539 
z"/>
<path fill="#F9DBDB" opacity="1.000000" stroke="none" 
	d="
M158.048294,93.896820 
	C160.821091,91.828850 163.958420,89.851616 167.439056,87.817329 
	C166.311249,92.524490 162.746445,94.893761 158.048294,93.896820 
z"/>
<path fill="#FAE6E5" opacity="1.000000" stroke="none" 
	d="
M305.192322,49.565018 
	C309.336700,50.246105 313.673981,51.205780 318.303314,52.424683 
	C313.409210,55.377834 309.555389,51.875023 305.192322,49.565018 
z"/>
<path fill="#E7FAE4" opacity="1.000000" stroke="none" 
	d="
M131.065491,279.027222 
	C130.590805,279.012878 130.116104,278.998535 129.284302,278.968628 
	C129.265671,278.072449 129.447739,276.543365 129.968353,276.417786 
	C133.053833,275.673523 136.217804,275.254639 139.678497,275.152161 
	C140.004349,275.770386 140.007126,275.962769 140.009888,276.155121 
	C140.009888,276.155121 139.784439,276.297699 139.366180,276.245819 
	C138.634689,276.451233 138.321442,276.708557 138.008194,276.965851 
	C137.771164,277.171112 137.518814,277.355377 136.755615,277.685425 
	C135.357452,277.948425 134.454788,278.044586 133.257080,278.162659 
	C132.652313,278.408569 132.342606,278.632629 131.798431,278.941223 
	C131.563965,279.025726 131.065491,279.027222 131.065491,279.027222 
z"/>
<path fill="#F8E6E3" opacity="1.000000" stroke="none" 
	d="
M82.229309,151.567810 
	C82.928169,150.334229 83.781425,149.369843 85.221558,148.184052 
	C86.134407,147.494659 86.460365,147.026688 86.786331,146.558716 
	C87.307793,146.045761 87.829254,145.532822 88.614761,144.938202 
	C88.763298,150.070648 86.266678,152.753815 82.229309,151.567810 
z"/>
<path fill="#6EB367" opacity="1.000000" stroke="none" 
	d="
M305.397583,225.013214 
	C304.411285,219.508759 308.612823,219.001801 312.788391,218.112732 
	C312.570587,218.938309 311.960571,219.709259 310.904846,220.788544 
	C309.873169,221.812698 309.287231,222.528503 308.701294,223.244293 
	C307.712463,223.811066 306.723633,224.377823 305.397583,225.013214 
z"/>
<path fill="#6EB367" opacity="1.000000" stroke="none" 
	d="
M319.661865,212.032730 
	C318.137787,213.956970 316.201721,215.854736 314.135162,218.080582 
	C314.004669,218.408661 313.583252,218.303680 313.371277,218.259277 
	C312.666382,213.670197 314.959869,211.858948 319.661865,212.032730 
z"/>
<path fill="#FAE6E5" opacity="1.000000" stroke="none" 
	d="
M174.889938,83.746124 
	C177.306702,82.439003 179.723465,81.131882 182.491730,79.810638 
	C182.282104,83.958511 179.555969,85.175430 175.375107,84.670982 
	C174.935608,84.156464 174.912781,83.951294 174.889938,83.746124 
z"/>
<path fill="#DFF7DB" opacity="1.000000" stroke="none" 
	d="
M279.225067,164.425262 
	C282.060028,163.798050 285.123871,163.423019 288.618958,163.113007 
	C285.851471,163.677826 282.652710,164.177628 279.225067,164.425262 
z"/>
<path fill="#DFF7DB" opacity="1.000000" stroke="none" 
	d="
M269.061768,165.355591 
	C270.798462,164.726929 272.571381,164.446487 274.716064,164.282028 
	C273.533508,166.862198 272.240997,170.527115 269.061768,165.355591 
z"/>
<path fill="#A63D40" opacity="1.000000" stroke="none" 
	d="
M81.138962,151.911972 
	C79.620895,153.373077 78.175102,154.623795 76.434662,156.002380 
	C76.140022,156.130234 75.982742,155.978928 75.969162,155.552872 
	C77.584206,153.698578 79.212837,152.270355 80.841461,150.842133 
	C80.841461,150.842117 81.061592,151.053497 81.172752,151.158081 
	C81.283913,151.262650 81.211235,151.701584 81.138962,151.911972 
z"/>
<path fill="#FAE6E5" opacity="1.000000" stroke="none" 
	d="
M183.266418,79.892578 
	C184.623550,78.827522 186.414291,77.825043 188.556793,76.807800 
	C189.265671,81.295082 185.892151,79.652168 183.266418,79.892578 
z"/>
<path fill="#E5FAE1" opacity="1.000000" stroke="none" 
	d="
M308.838440,223.587448 
	C309.287231,222.528503 309.873169,221.812698 310.751526,221.045975 
	C311.500671,221.609177 311.957428,222.223297 312.414185,222.837433 
	C311.267975,223.201813 310.121796,223.566208 308.838440,223.587448 
z"/>
<path fill="#DFF7DB" opacity="1.000000" stroke="none" 
	d="
M272.576294,160.986816 
	C271.400238,162.096817 269.806366,163.199402 268.147095,164.615967 
	C266.695648,161.181717 266.695648,161.181717 272.576294,160.986816 
z"/>
<path fill="#FAE1DF" opacity="1.000000" stroke="none" 
	d="
M50.828316,188.758667 
	C51.143074,187.402802 51.902046,186.131897 52.920593,184.699066 
	C54.131798,186.675873 54.897934,188.732422 50.828316,188.758667 
z"/>
<path fill="#DBF8D8" opacity="1.000000" stroke="none" 
	d="
M40.361256,317.941711 
	C41.843914,317.964844 43.222038,318.358612 44.827671,318.955261 
	C42.869316,322.202911 41.603649,320.027130 40.361256,317.941711 
z"/>
<path fill="#FAE6E5" opacity="1.000000" stroke="none" 
	d="
M274.854584,49.859512 
	C275.756897,49.533184 277.011139,49.307247 278.649963,49.150093 
	C278.696564,54.311668 276.443207,49.509781 274.854584,49.859512 
z"/>
<path fill="#A63D40" opacity="1.000000" stroke="none" 
	d="
M338.080750,65.314606 
	C338.719635,66.287621 339.382355,67.583214 340.060364,69.159119 
	C339.418610,68.172005 338.761566,66.904594 338.080750,65.314606 
z"/>
<path fill="#F9DBDB" opacity="1.000000" stroke="none" 
	d="
M153.119873,96.891563 
	C153.801544,96.083244 154.903656,95.328476 156.335098,94.513214 
	C155.623047,95.283524 154.581665,96.114319 153.119873,96.891563 
z"/>
<path fill="#F9DBDB" opacity="1.000000" stroke="none" 
	d="
M168.160126,87.840912 
	C168.658813,87.181778 169.519989,86.597908 170.703491,86.025414 
	C170.191406,86.663254 169.357010,87.289719 168.160126,87.840912 
z"/>
<path fill="#DFF7DB" opacity="1.000000" stroke="none" 
	d="
M300.429993,169.215790 
	C300.090546,168.826752 300.054138,168.323303 300.012939,167.443176 
	C300.488892,167.041626 300.969574,167.016769 301.810364,167.032394 
	C301.691284,167.749039 301.212128,168.425201 300.429993,169.215790 
z"/>
<path fill="#FAE6E5" opacity="1.000000" stroke="none" 
	d="
M297.089233,49.124298 
	C297.535614,48.765087 298.125916,48.655476 298.880188,48.726097 
	C298.440460,49.062187 297.836823,49.218044 297.089233,49.124298 
z"/>
<path fill="#E3F9DF" opacity="1.000000" stroke="none" 
	d="
M140.380356,276.154816 
	C140.007126,275.962769 140.004349,275.770386 140.001007,275.289459 
	C140.769104,274.991272 141.537796,274.981659 142.690521,275.007202 
	C143.074539,275.042358 143.005280,275.472107 142.979477,275.688049 
	C142.219391,275.987488 141.485107,276.071014 140.380356,276.154816 
z"/>
<path fill="#F8E6E3" opacity="1.000000" stroke="none" 
	d="
M109.637848,133.747070 
	C109.622704,133.993164 109.492210,134.126801 109.361710,134.260422 
	C109.415298,134.051804 109.468895,133.843201 109.637848,133.747070 
z"/>
<path fill="#F8E6E3" opacity="1.000000" stroke="none" 
	d="
M95.996323,144.002808 
	C96.114296,144.144379 96.235947,144.283112 96.357590,144.421860 
	C96.274490,144.371094 96.191391,144.320312 96.056961,144.131073 
	C96.005630,143.992615 96.000000,144.000000 95.996323,144.002808 
z"/>
<path fill="#F9DBDB" opacity="1.000000" stroke="none" 
	d="
M174.603897,83.810677 
	C174.912781,83.951294 174.935608,84.156464 174.974701,84.670624 
	C174.736465,84.953064 174.481949,84.926506 173.859253,84.786530 
	C173.766678,84.407150 174.042267,84.141190 174.603897,83.810677 
z"/>
<path fill="#E1F9DC" opacity="1.000000" stroke="none" 
	d="
M181.986511,258.124573 
	C182.063858,258.456207 181.818314,258.713715 181.309280,259.038940 
	C181.036026,258.923615 181.026260,258.740631 181.009430,258.282898 
	C181.222809,258.022247 181.443222,258.036346 181.986511,258.124573 
z"/>
<path fill="#E7FAE4" opacity="1.000000" stroke="none" 
	d="
M380.466370,216.442841 
	C380.524811,216.406845 380.407959,216.478821 380.466370,216.442841 
z"/>
<path fill="#FAE6E5" opacity="1.000000" stroke="none" 
	d="
M213.997345,70.002014 
	C214.114563,70.140854 214.234451,70.277679 214.354324,70.414497 
	C214.272949,70.364624 214.191589,70.314751 214.057114,70.129791 
	C214.004013,69.994705 214.000000,70.000000 213.997345,70.002014 
z"/>
<path fill="#F9DBDB" opacity="1.000000" stroke="none" 
	d="
M171.852264,85.774841 
	C171.822540,85.490891 172.107452,85.211723 172.699707,84.920341 
	C172.726990,85.198631 172.446945,85.489128 171.852264,85.774841 
z"/>
<path fill="#A33936" opacity="1.000000" stroke="none" 
	d="
M123.077103,89.224838 
	C123.908203,88.628868 124.739304,88.032898 126.066856,87.191978 
	C126.823097,86.677567 127.082878,86.408096 127.673607,86.081810 
	C133.613235,82.290154 139.221939,78.555328 144.906921,74.901184 
	C144.983215,74.981865 145.135895,75.143158 145.048615,75.474068 
	C140.443405,79.539917 136.069611,83.468018 131.377197,86.969063 
	C121.985985,93.975906 112.381348,100.695961 102.942490,107.639977 
	C97.901527,111.348557 93.022377,115.277069 88.044060,118.825226 
	C88.006340,118.356285 87.994759,118.168434 88.153618,117.694916 
	C95.521423,111.256798 102.718796,105.104362 109.916168,98.951920 
	C110.254639,98.905098 110.542610,98.758842 111.202293,98.272659 
	C111.873764,97.751648 112.123024,97.471153 112.372292,97.190659 
	C112.808334,96.911743 113.244377,96.632828 114.139206,96.054298 
	C117.424370,93.578072 120.250732,91.401451 123.077103,89.224838 
z"/>
<path fill="#F8E4E2" opacity="1.000000" stroke="none" 
	d="
M109.604523,98.806572 
	C102.718796,105.104362 95.521423,111.256798 87.887939,117.775665 
	C87.080933,118.551262 86.710030,118.960419 86.096764,119.498726 
	C85.536850,120.058678 85.219299,120.489464 84.935303,120.954956 
	C84.968857,120.989662 84.946770,120.895668 84.679413,120.960648 
	C84.236343,121.330864 84.060638,121.636101 83.934036,121.949883 
	C83.983147,121.958427 83.910629,121.890022 83.657669,121.947296 
	C83.061615,122.372543 82.718521,122.740532 82.081978,123.277519 
	C79.561058,125.329254 77.333603,127.211990 75.106140,129.094711 
	C74.748947,127.017433 74.391754,124.940155 74.034561,122.862877 
	C74.493279,123.144127 74.951996,123.425377 75.410713,123.706627 
	C77.637665,121.487892 79.649063,118.983940 82.133682,117.106133 
	C88.511070,112.286285 95.105995,107.754761 101.595657,103.082558 
	C102.881630,102.156731 103.998985,100.969170 105.353874,100.174858 
	C106.551170,99.472946 107.971199,99.150955 109.604523,98.806572 
z"/>
<path fill="#A63D40" opacity="1.000000" stroke="none" 
	d="
M75.096939,129.079468 
	C77.333603,127.211990 79.561058,125.329254 82.224747,123.521225 
	C82.781555,123.738235 82.902130,123.880539 83.008446,124.252914 
	C82.994179,124.482986 82.978455,124.943748 82.678574,125.106270 
	C72.467415,136.032043 62.580837,146.818344 52.598354,157.515137 
	C51.791683,158.379532 50.326893,158.629730 49.167923,159.165344 
	C49.167923,159.165344 48.953476,158.968140 48.948044,158.548431 
	C50.094448,156.744141 51.262737,155.372833 52.395164,153.972519 
	C56.382706,149.041733 60.357937,144.100983 64.337845,139.164017 
	C65.052559,138.233551 65.767281,137.303101 67.050125,136.244919 
	C67.854340,135.796921 68.090439,135.476654 68.326546,135.156372 
	C68.867584,134.698868 69.408630,134.241348 70.381912,133.484787 
	C72.241165,131.820328 73.668175,130.454910 75.095184,129.089493 
	C75.095192,129.089493 75.087723,129.064240 75.096939,129.079468 
z"/>
<path fill="#F9E4E0" opacity="1.000000" stroke="none" 
	d="
M222.298065,32.144547 
	C211.536499,37.252903 200.774918,42.361259 189.650604,47.512764 
	C190.988693,45.413006 192.336105,42.767780 194.482239,41.257736 
	C197.012558,39.477364 200.187866,38.549908 203.166397,37.484261 
	C208.506058,35.573868 213.907669,33.836594 220.048157,32.024559 
	C221.307983,32.062954 221.803024,32.103752 222.298065,32.144547 
z"/>
<path fill="#FAE3E3" opacity="1.000000" stroke="none" 
	d="
M63.947788,139.128098 
	C60.357937,144.100983 56.382706,149.041733 52.395164,153.972519 
	C51.262737,155.372833 50.094448,156.744141 48.839680,158.451096 
	C47.475334,160.125275 46.213917,161.477097 44.301231,162.949921 
	C43.133232,163.052505 42.616508,163.034073 42.099785,163.015656 
	C45.878048,158.125244 49.592300,153.183426 53.460716,148.365387 
	C55.493229,145.833923 57.709122,143.431656 60.018051,141.148911 
	C60.957500,140.220123 62.363823,139.763580 63.947788,139.128098 
z"/>
<path fill="#F9E4E0" opacity="1.000000" stroke="none" 
	d="
M144.830627,74.820503 
	C139.221939,78.555328 133.613235,82.290154 127.337997,86.033356 
	C126.446785,86.027611 126.222115,86.013512 125.997444,85.999405 
	C126.132904,84.958763 125.890610,83.343056 126.462769,82.967209 
	C131.685455,79.536407 137.091385,76.385742 142.344330,72.998985 
	C143.694077,72.128769 144.692093,70.713020 146.485336,68.911217 
	C146.796463,69.004730 148.142181,69.409187 149.712250,70.264229 
	C148.234619,72.083374 146.532623,73.451935 144.830627,74.820503 
z"/>
<path fill="#FAF7F3" opacity="1.000000" stroke="none" 
	d="
M287.901611,13.052248 
	C280.522522,14.656881 273.143463,16.261513 265.376526,17.839241 
	C264.991119,17.410515 264.993500,17.008690 264.999146,16.305561 
	C269.642334,14.366461 274.212646,12.471461 278.948883,11.189692 
	C281.683258,10.449696 284.685516,10.699532 287.787018,11.113541 
	C287.971771,12.166226 287.936707,12.609237 287.901611,13.052248 
z"/>
<path fill="#A33936" opacity="1.000000" stroke="none" 
	d="
M144.906921,74.901184 
	C146.532623,73.451935 148.234619,72.083374 150.041107,70.396255 
	C153.398926,68.303818 156.652237,66.529938 160.276367,64.668816 
	C160.647186,64.581573 160.883118,64.855339 160.951294,65.356857 
	C157.993439,68.193672 155.114197,70.764244 151.887054,72.777084 
	C149.912796,74.008476 147.404404,74.383522 145.135895,75.143158 
	C145.135895,75.143158 144.983215,74.981865 144.906921,74.901184 
z"/>
<path fill="#FAF7F3" opacity="1.000000" stroke="none" 
	d="
M254.005417,20.908981 
	C253.695099,21.044397 253.384766,21.179811 252.454041,21.212063 
	C251.231384,21.431707 250.629135,21.754515 250.026886,22.077320 
	C250.026886,22.077320 250.023087,22.001890 249.755356,22.001423 
	C248.996185,22.267168 248.504761,22.533379 248.013321,22.799591 
	C248.013321,22.799591 247.610413,23.038143 247.018066,23.017712 
	C245.946182,22.987432 245.466644,22.977585 244.987106,22.967737 
	C245.074158,21.531935 245.161209,20.096132 245.251266,18.610661 
	C250.034302,18.610661 254.546692,18.610661 259.170410,18.969593 
	C259.281738,19.328524 259.252716,19.314426 258.881317,19.216103 
	C257.008423,19.714844 255.506912,20.311911 254.005417,20.908981 
z"/>
<path fill="#F6DAD8" opacity="1.000000" stroke="none" 
	d="
M180.014618,52.175102 
	C176.194260,54.821690 171.940674,57.383816 167.330841,59.950108 
	C168.600357,54.972240 173.027100,52.211006 180.014618,52.175102 
z"/>
<path fill="#F7E1DB" opacity="1.000000" stroke="none" 
	d="
M122.895988,88.938019 
	C120.250732,91.401451 117.424370,93.578072 114.265121,95.824913 
	C113.372841,91.560158 116.055534,89.347473 122.895988,88.938019 
z"/>
<path fill="#FAF7F3" opacity="1.000000" stroke="none" 
	d="
M229.994492,29.064247 
	C229.994492,29.064243 229.812393,29.271765 229.375885,29.225780 
	C228.627884,29.413319 228.316391,29.646839 228.004913,29.880358 
	C228.004913,29.880356 227.690552,30.137465 227.159576,30.066978 
	C226.086182,29.666536 225.543793,29.336580 225.001389,29.006622 
	C227.772186,26.134714 230.696609,23.833517 234.995789,26.703186 
	C235.076859,27.068506 235.123978,27.067955 234.812180,27.057287 
	C233.996674,27.350302 233.492950,27.653986 232.989243,27.957672 
	C232.506973,28.216734 232.024704,28.475796 231.128036,28.593628 
	C230.473938,28.656349 230.234222,28.860300 229.994492,29.064247 
z"/>
<path fill="#FAE1DF" opacity="1.000000" stroke="none" 
	d="
M41.806946,163.196045 
	C42.616508,163.034073 43.133232,163.052505 44.037582,163.111191 
	C42.255207,165.876740 40.085209,168.602020 37.558632,171.354996 
	C38.639408,168.713928 40.076759,166.045181 41.806946,163.196045 
z"/>
<path fill="#F8E4E2" opacity="1.000000" stroke="none" 
	d="
M224.595734,29.009224 
	C225.543793,29.336580 226.086182,29.666536 226.956573,30.061611 
	C225.850113,30.781704 224.415634,31.436678 222.639618,32.118099 
	C221.803024,32.103752 221.307983,32.062954 220.441711,32.018257 
	C219.684662,28.600080 222.096039,29.023657 224.595734,29.009224 
z"/>
<path fill="#F8E4E2" opacity="1.000000" stroke="none" 
	d="
M74.690277,129.053497 
	C73.668175,130.454910 72.241165,131.820328 70.475113,133.230972 
	C69.687172,130.071686 71.214706,128.792847 74.690277,129.053497 
z"/>
<path fill="#F6DAD8" opacity="1.000000" stroke="none" 
	d="
M166.000473,60.174065 
	C164.959656,61.307518 163.467789,62.362846 161.634003,63.472214 
	C160.464066,59.593922 163.147751,60.019939 166.000473,60.174065 
z"/>
<path fill="#F9E4E0" opacity="1.000000" stroke="none" 
	d="
M188.380890,47.502705 
	C187.813156,48.240685 186.839615,48.783443 185.514725,49.337181 
	C186.100601,48.667931 187.037842,47.987709 188.380890,47.502705 
z"/>
<path fill="#F8E4E2" opacity="1.000000" stroke="none" 
	d="
M240.779053,25.004593 
	C240.579086,25.314112 240.086288,25.594313 239.300278,25.816013 
	C239.500122,25.496765 239.993179,25.236021 240.779053,25.004593 
z"/>
<path fill="#FAF7F3" opacity="1.000000" stroke="none" 
	d="
M263.043091,18.101631 
	C262.802551,18.411180 262.232910,18.678438 261.342010,18.904488 
	C261.585175,18.595301 262.149597,18.327318 263.043091,18.101631 
z"/>
<path fill="#F8E4E2" opacity="1.000000" stroke="none" 
	d="
M244.974930,23.180683 
	C245.466644,22.977585 245.946182,22.987432 246.784302,23.030716 
	C246.622375,23.348606 246.101852,23.633060 245.273514,23.868858 
	C244.965683,23.820204 244.962753,23.393627 244.974930,23.180683 
z"/>
<path fill="#F8E4E2" opacity="1.000000" stroke="none" 
	d="
M243.821075,24.024864 
	C243.615936,24.345863 243.109711,24.631819 242.301086,24.867577 
	C242.505783,24.541527 243.012894,24.265673 243.821075,24.024864 
z"/>
<path fill="#F8E4E2" opacity="1.000000" stroke="none" 
	d="
M68.046089,135.197479 
	C68.090439,135.476654 67.854340,135.796921 67.309906,136.082108 
	C67.256264,135.777557 67.510948,135.508072 68.046089,135.197479 
z"/>
<path fill="#F8E4E2" opacity="1.000000" stroke="none" 
	d="
M237.150864,26.167507 
	C237.137680,26.413132 236.845963,26.625530 236.276718,26.803606 
	C236.290237,26.557615 236.581284,26.345947 237.150864,26.167507 
z"/>
<path fill="#F6DAD8" opacity="1.000000" stroke="none" 
	d="
M182.039825,51.170578 
	C182.065216,51.429634 181.805511,51.680031 181.268768,51.940056 
	C181.246063,51.687096 181.500397,51.424507 182.039825,51.170578 
z"/>
<path fill="#F7E1DB" opacity="1.000000" stroke="none" 
	d="
M112.077133,97.208801 
	C112.123024,97.471153 111.873764,97.751648 111.338409,98.067940 
	C111.295540,97.811462 111.538757,97.519203 112.077133,97.208801 
z"/>
<path fill="#F7E1DB" opacity="1.000000" stroke="none" 
	d="
M125.984497,86.244698 
	C126.222115,86.013512 126.446785,86.027611 127.007057,86.090179 
	C127.082878,86.408096 126.823097,86.677567 126.277939,86.963913 
	C125.992577,86.980804 125.971558,86.489990 125.984497,86.244698 
z"/>
<path fill="#6EB46A" opacity="1.000000" stroke="none" 
	d="
M65.097397,288.910095 
	C74.798996,288.074463 84.731026,288.028473 94.543427,286.921783 
	C103.516281,285.909790 112.359772,283.750641 121.652321,282.124268 
	C120.762711,283.355621 119.569397,285.490997 118.185944,285.622284 
	C101.157288,287.238037 84.101501,288.569153 67.048706,289.923035 
	C66.479439,289.968231 65.867653,289.478027 65.097397,288.910095 
z"/>
<path fill="#6DB368" opacity="1.000000" stroke="none" 
	d="
M193.271240,253.890106 
	C199.971649,249.535889 207.092575,245.237671 214.568390,240.916458 
	C214.562683,244.447708 212.580933,246.355545 209.187042,247.501419 
	C206.130859,248.533295 203.385223,250.450012 200.401611,251.743454 
	C198.250885,252.675812 195.934341,253.225632 193.271240,253.890106 
z"/>
<path fill="#6DB366" opacity="1.000000" stroke="none" 
	d="
M315.092865,140.030518 
	C320.711121,136.535507 326.513306,133.331467 332.668518,130.124084 
	C332.329865,131.537369 331.991364,133.738876 330.886047,134.236252 
	C325.800018,136.524826 320.500000,138.337860 315.092865,140.030518 
z"/>
<path fill="#6EB367" opacity="1.000000" stroke="none" 
	d="
M351.806702,180.040024 
	C347.415833,185.098526 342.690826,190.102188 337.652771,195.194778 
	C338.481293,193.236389 339.422333,191.039474 340.811951,189.177246 
	C342.827576,186.476013 345.028625,183.874481 347.437775,181.524887 
	C348.383606,180.602432 350.104584,180.474777 351.806702,180.040024 
z"/>
<path fill="#6EB367" opacity="1.000000" stroke="none" 
	d="
M336.017029,196.430847 
	C332.175507,200.745911 327.965302,204.875061 323.418762,209.055786 
	C324.014282,207.243805 324.697083,205.189011 325.942932,203.566605 
	C327.399536,201.669785 329.227203,199.995865 331.123169,198.519760 
	C332.429871,197.502396 334.126160,196.985489 336.017029,196.430847 
z"/>
<path fill="#6DB368" opacity="1.000000" stroke="none" 
	d="
M215.306671,240.954178 
	C219.203735,237.872253 223.497635,234.827545 227.995285,231.517944 
	C229.561386,230.513184 230.923767,229.773315 232.615891,228.978806 
	C229.597397,231.991013 226.435104,235.304291 222.827240,238.027161 
	C220.839279,239.527496 218.102646,240.035843 215.306671,240.954178 
z"/>
<path fill="#6DB366" opacity="1.000000" stroke="none" 
	d="
M334.084412,129.869965 
	C339.812988,126.497284 345.959229,123.176216 352.458893,119.817909 
	C348.458588,122.813591 344.193726,125.988937 339.698792,128.795776 
	C338.283905,129.679291 336.251678,129.574203 334.084412,129.869965 
z"/>
<path fill="#6DB368" opacity="1.000000" stroke="none" 
	d="
M233.335815,228.964661 
	C235.633148,226.932526 238.334839,224.922318 241.351349,222.811707 
	C240.943695,227.227539 238.086105,229.046997 233.335815,228.964661 
z"/>
<path fill="#6DB366" opacity="1.000000" stroke="none" 
	d="
M305.390930,144.993927 
	C307.372467,143.601685 309.778900,142.228348 312.541199,140.815186 
	C312.875610,146.096512 308.811737,144.662354 305.390930,144.993927 
z"/>
<path fill="#6EB46A" opacity="1.000000" stroke="none" 
	d="
M133.552124,278.140778 
	C134.454788,278.044586 135.357452,277.948425 136.602524,277.862823 
	C136.093307,280.967682 134.051880,281.427338 131.124207,280.104370 
	C130.907593,279.804596 130.949524,279.408356 131.007507,279.217773 
	C131.065491,279.027222 131.563965,279.025726 132.094086,278.930420 
	C132.933533,278.603668 133.242828,278.372223 133.552124,278.140778 
z"/>
<path fill="#6DB366" opacity="1.000000" stroke="none" 
	d="
M300.808533,160.822906 
	C299.291687,161.426178 297.533813,161.734909 295.382935,161.976593 
	C296.849121,161.449158 298.708344,160.988754 300.808533,160.822906 
z"/>
<path fill="#6DB368" opacity="1.000000" stroke="none" 
	d="
M242.105377,222.763168 
	C243.221313,221.422119 244.718155,220.181686 246.549454,218.895782 
	C245.418030,220.188141 243.952148,221.525955 242.105377,222.763168 
z"/>
<path fill="#6EB46A" opacity="1.000000" stroke="none" 
	d="
M124.131554,282.107117 
	C125.414223,281.270050 126.894585,280.732971 128.722275,280.227539 
	C128.389877,282.962280 126.766678,283.583191 124.131554,282.107117 
z"/>
<path fill="#6DB368" opacity="1.000000" stroke="none" 
	d="
M247.249664,218.920105 
	C248.347412,217.596390 249.819748,216.316208 251.617233,214.977203 
	C250.503006,216.266800 249.063644,217.615219 247.249664,218.920105 
z"/>
<path fill="#6EB46A" opacity="1.000000" stroke="none" 
	d="
M56.052040,287.570312 
	C58.039230,287.498230 60.127609,287.774078 62.595188,288.176331 
	C60.700668,288.174591 58.426949,288.046448 56.052040,287.570312 
z"/>
<path fill="#6EB46A" opacity="1.000000" stroke="none" 
	d="
M13.150621,263.053101 
	C14.388829,263.557953 15.605790,264.452148 16.961060,265.648376 
	C15.776038,265.114441 14.452705,264.278442 13.150621,263.053101 
z"/>
<path fill="#6EB46A" opacity="1.000000" stroke="none" 
	d="
M6.066257,252.315918 
	C7.011630,253.405670 7.934614,254.866150 8.942380,256.646912 
	C8.032730,255.540314 7.038300,254.113480 6.066257,252.315918 
z"/>
<path fill="#6EB367" opacity="1.000000" stroke="none" 
	d="
M322.725098,209.058716 
	C322.293060,210.013641 321.479248,210.940842 320.361603,211.970871 
	C320.819611,211.059479 321.581482,210.045242 322.725098,209.058716 
z"/>
<path fill="#6EB46A" opacity="1.000000" stroke="none" 
	d="
M18.080854,267.230988 
	C18.940165,267.390869 19.820553,267.904053 20.806412,268.716064 
	C19.975233,268.538025 19.038584,268.061127 18.080854,267.230988 
z"/>
<path fill="#6EB46A" opacity="1.000000" stroke="none" 
	d="
M9.028910,257.340210 
	C9.726821,257.742645 10.418794,258.511200 11.158546,259.601929 
	C10.478541,259.184845 9.750756,258.445587 9.028910,257.340210 
z"/>
<path fill="#6DB368" opacity="1.000000" stroke="none" 
	d="
M254.076782,213.734344 
	C254.503250,212.959503 255.298294,212.280914 256.416077,211.512619 
	C255.974304,212.225479 255.209824,213.028046 254.076782,213.734344 
z"/>
<path fill="#6DB368" opacity="1.000000" stroke="none" 
	d="
M190.210083,255.854568 
	C190.643234,255.219299 191.446457,254.620560 192.544891,253.925797 
	C192.086777,254.516876 191.333450,255.203979 190.210083,255.854568 
z"/>
<path fill="#6DB368" opacity="1.000000" stroke="none" 
	d="
M188.069763,256.864227 
	C188.239685,256.522949 188.741455,256.194580 189.560425,255.829224 
	C189.385605,256.153870 188.893616,256.515503 188.069763,256.864227 
z"/>
<path fill="#6DB366" opacity="1.000000" stroke="none" 
	d="
M368.622864,143.167511 
	C368.902710,143.437164 368.988281,143.880615 369.048096,144.663940 
	C368.824463,144.449631 368.626526,143.895477 368.622864,143.167511 
z"/>
<path fill="#6DB368" opacity="1.000000" stroke="none" 
	d="
M252.250793,214.942719 
	C252.332001,214.528152 252.737228,214.116577 253.440338,213.680359 
	C253.350418,214.085739 252.962601,214.515732 252.250793,214.942719 
z"/>
<path fill="#6EB46A" opacity="1.000000" stroke="none" 
	d="
M22.113085,270.189301 
	C22.319683,270.132477 22.624861,270.329956 23.010849,270.797058 
	C22.798326,270.859009 22.504993,270.651306 22.113085,270.189301 
z"/>
<path fill="#E3F9DF" opacity="1.000000" stroke="none" 
	d="
M138.323288,276.951172 
	C138.321442,276.708557 138.634689,276.451233 139.262085,276.162445 
	C139.263626,276.399475 138.951004,276.667969 138.323288,276.951172 
z"/>
<path fill="#DFF7DB" opacity="1.000000" stroke="none" 
	d="
M299.236023,170.825073 
	C299.099365,170.612656 299.233521,170.407059 299.588440,170.147095 
	C299.820374,170.369965 299.719604,170.616348 299.236023,170.825073 
z"/>
<path fill="#6EB46A" opacity="1.000000" stroke="none" 
	d="
M12.134312,261.129089 
	C12.335521,261.081268 12.619606,261.287415 12.980125,261.751648 
	C12.776771,261.800842 12.496980,261.591949 12.134312,261.129089 
z"/>
<path fill="#6EB367" opacity="1.000000" stroke="none" 
	d="
M337.014404,195.304169 
	C337.327026,195.612595 337.218475,195.901199 336.754974,196.231323 
	C336.606720,195.996994 336.671112,195.667496 337.014404,195.304169 
z"/>
<path fill="#E1FADD" opacity="1.000000" stroke="none" 
	d="
M320.965973,7.059156 
	C322.524292,7.374563 324.079102,7.940897 325.641479,7.962592 
	C332.991821,8.064654 340.345154,8.090188 347.695587,7.997746 
	C352.660034,7.935312 357.501953,7.820282 361.645538,11.406539 
	C362.565247,12.202544 364.629639,11.524557 365.895844,12.110811 
	C367.406830,12.810419 368.626160,14.140008 369.972168,15.596039 
	C352.459808,9.344694 334.226654,8.394531 315.404907,9.013878 
	C315.164764,8.417797 315.298218,7.953590 316.131836,7.257795 
	C318.210022,7.037190 319.587982,7.048173 320.965973,7.059156 
z"/>
<path fill="#E1FADD" opacity="1.000000" stroke="none" 
	d="
M378.777466,20.504158 
	C380.928833,21.101545 383.223694,22.010586 385.520416,22.914829 
	C390.885498,25.027132 393.740173,29.664600 396.579346,34.204956 
	C397.726562,36.039619 398.193420,38.299702 398.928955,40.777592 
	C393.387695,33.265301 387.092468,26.120564 378.777466,20.504158 
z"/>
<path fill="#E1FADD" opacity="1.000000" stroke="none" 
	d="
M288.237518,13.136330 
	C287.936707,12.609237 287.971771,12.166226 288.011536,11.391170 
	C288.016266,11.059122 288.509094,11.032144 289.141785,11.016953 
	C291.182648,10.668611 292.590851,10.335460 293.999023,10.002305 
	C300.242737,9.417114 306.486450,8.831927 313.199371,8.456299 
	C308.913727,9.466148 304.157227,10.256551 299.404694,11.070541 
	C296.679413,11.537318 293.960693,12.042397 290.915405,12.830732 
	C289.918976,13.160959 289.246216,13.190685 288.237518,13.136330 
z"/>
<path fill="#E1FADD" opacity="1.000000" stroke="none" 
	d="
M370.251831,16.265230 
	C373.092285,16.030489 376.474548,15.254782 377.981506,19.577049 
	C375.502289,18.799726 372.988556,17.656956 370.251831,16.265230 
z"/>
<path fill="#F9FFFC" opacity="1.000000" stroke="none" 
	d="
M321.062531,6.657522 
	C319.587982,7.048173 318.210022,7.037190 316.417847,7.025088 
	C315.645752,4.124323 316.689484,2.817734 319.839355,2.944662 
	C324.994080,3.152377 330.163269,3.000844 335.326385,3.000844 
	C335.342987,3.667248 335.359589,4.333653 335.376221,5.000058 
	C332.609161,5.000058 329.830261,4.843998 327.078979,5.052308 
	C325.086700,5.203149 323.131073,5.837277 321.062531,6.657522 
z"/>
<path fill="#FAF7F3" opacity="1.000000" stroke="none" 
	d="
M298.852173,6.137692 
	C298.870056,5.332128 299.120605,4.757851 299.371155,4.183570 
	C299.851135,4.662107 300.331116,5.140650 300.811096,5.619195 
	C300.235687,5.869126 299.660309,6.119053 298.852173,6.137692 
z"/>
<path fill="#FAF7F3" opacity="1.000000" stroke="none" 
	d="
M293.797760,9.742869 
	C292.590851,10.335460 291.182648,10.668611 289.388245,11.003901 
	C290.533478,10.498503 292.065002,9.990967 293.797760,9.742869 
z"/>
<path fill="#BE1F25" opacity="1.000000" stroke="none" 
	d="
M145.048615,75.474068 
	C147.404404,74.383522 149.912796,74.008476 151.887054,72.777084 
	C155.114197,70.764244 157.993439,68.193672 161.071686,65.491592 
	C165.555695,63.088772 170.017044,61.113995 174.408218,58.993858 
	C177.067245,57.710022 179.608429,56.183846 182.218445,54.796410 
	C190.324188,50.487556 198.384979,46.089287 206.571701,41.939747 
	C210.261261,40.069649 214.198807,38.684528 218.039474,37.117653 
	C228.377350,32.900097 238.516800,28.052126 249.124969,24.681782 
	C259.656891,21.335663 270.609772,17.698479 281.474365,17.369328 
	C300.972778,16.778616 317.411682,24.863955 329.275208,40.933109 
	C330.435059,42.504124 331.090454,44.458229 331.913422,46.264862 
	C333.235962,49.168221 334.660034,52.041439 335.718903,55.041145 
	C336.164886,56.304478 338.457855,58.577301 334.359894,58.991562 
	C329.929504,52.367790 322.953156,50.889927 316.219788,49.312679 
	C303.092499,46.237713 289.827148,45.879036 276.463257,47.888245 
	C268.128662,49.141319 259.638062,49.522457 251.397552,51.186600 
	C244.056473,52.669106 236.884552,55.150421 229.779831,57.602036 
	C220.596527,60.770908 211.461578,64.123886 202.483582,67.828415 
	C196.467331,70.310860 190.775650,73.574020 184.910782,76.430458 
	C174.772232,81.368370 164.543915,86.128693 154.505737,91.261688 
	C151.793274,92.648705 149.722778,95.238487 147.196976,97.052521 
	C137.159668,104.261299 127.495171,112.131416 116.857643,118.321823 
	C106.411980,124.400558 98.969971,133.792801 89.298523,140.633209 
	C85.951637,143.000397 83.708702,146.928421 80.901489,150.492813 
	C79.212837,152.270355 77.584206,153.698578 75.890968,155.476746 
	C70.271118,157.746246 67.800522,162.626617 64.898621,167.495163 
	C63.159233,168.742188 60.980824,169.245026 59.884644,170.614243 
	C54.974083,176.748032 49.918365,182.846130 45.777012,189.494080 
	C40.996445,197.168106 37.432327,205.592773 32.775494,213.352737 
	C26.378895,224.011780 23.595667,235.735748 21.730717,247.747482 
	C21.216322,251.060593 21.917625,254.581482 22.212036,257.994019 
	C22.391342,260.072357 22.859081,262.125854 23.197262,264.190491 
	C22.786983,264.494690 22.376705,264.798859 21.966427,265.103058 
	C19.546959,263.114410 16.752625,261.434509 14.798846,259.062317 
	C12.095941,255.780563 10.030681,251.974426 7.683290,248.398804 
	C5.473980,245.033493 4.628309,241.711716 6.509922,237.707550 
	C9.930559,230.428268 12.916791,222.945663 16.129248,215.567474 
	C19.078579,208.793594 21.770473,201.880386 25.179022,195.343094 
	C27.516638,190.859741 30.848892,186.887741 33.804630,182.735626 
	C38.469879,176.182083 43.222683,169.690628 47.855450,163.114456 
	C48.496872,162.203949 48.664593,160.959763 49.109764,159.517685 
	C50.326893,158.629730 51.791683,158.379532 52.598354,157.515137 
	C62.580837,146.818344 72.467415,136.032043 82.911713,125.115692 
	C83.622520,124.640182 83.800308,124.317772 83.989670,123.643860 
	C83.971039,122.824913 83.940834,122.357468 83.910629,121.890022 
	C83.910629,121.890022 83.983147,121.958427 84.195061,121.876549 
	C84.586906,121.495003 84.766838,121.195335 84.946777,120.895668 
	C84.946770,120.895668 84.968857,120.989662 85.281372,120.992828 
	C86.057152,120.979576 86.520409,120.963165 87.127441,121.109268 
	C87.507545,120.841591 87.743874,120.411400 87.997902,119.762001 
	C88.015602,119.542786 88.070198,119.106323 88.070198,119.106323 
	C93.022377,115.277069 97.901527,111.348557 102.942490,107.639977 
	C112.381348,100.695961 121.985985,93.975906 131.377197,86.969063 
	C136.069611,83.468018 140.443405,79.539917 145.048615,75.474068 
z"/>
<path fill="#F2CACA" opacity="1.000000" stroke="none" 
	d="
M86.526428,146.678650 
	C86.460365,147.026688 86.134407,147.494659 85.505226,148.022369 
	C85.556854,147.654266 85.911690,147.226410 86.526428,146.678650 
z"/>
<path fill="#F8E4E2" opacity="1.000000" stroke="none" 
	d="
M254.359100,20.952011 
	C255.506912,20.311911 257.008423,19.714844 258.871460,19.225878 
	C257.726288,19.887667 256.219543,20.441355 254.359100,20.952011 
z"/>
<path fill="#A63D40" opacity="1.000000" stroke="none" 
	d="
M336.956451,62.642792 
	C336.366058,62.518368 335.726135,62.062767 334.953888,61.339634 
	C335.516693,61.485275 336.211792,61.898445 336.956451,62.642792 
z"/>
<path fill="#F8E4E2" opacity="1.000000" stroke="none" 
	d="
M233.295746,27.965586 
	C233.492950,27.653986 233.996674,27.350302 234.811493,27.081158 
	C234.615814,27.401630 234.109039,27.687567 233.295746,27.965586 
z"/>
<path fill="#F8E4E2" opacity="1.000000" stroke="none" 
	d="
M248.299850,22.828381 
	C248.504761,22.533379 248.996185,22.267168 249.779556,22.030415 
	C249.576447,22.325638 249.081406,22.591406 248.299850,22.828381 
z"/>
<path fill="#F8E4E2" opacity="1.000000" stroke="none" 
	d="
M250.376892,22.121563 
	C250.629135,21.754515 251.231384,21.431707 252.200775,21.166670 
	C251.954254,21.538227 251.340561,21.852016 250.376892,22.121563 
z"/>
<path fill="#F8E4E2" opacity="1.000000" stroke="none" 
	d="
M228.305725,29.890181 
	C228.316391,29.646839 228.627884,29.413319 229.243103,29.188011 
	C229.233414,29.430817 228.919983,29.665409 228.305725,29.890181 
z"/>
<path fill="#F8E4E2" opacity="1.000000" stroke="none" 
	d="
M230.269135,29.059177 
	C230.234222,28.860300 230.473938,28.656349 230.844070,28.582750 
	C230.830902,28.826771 230.687332,28.940439 230.269135,29.059177 
z"/>
<path fill="#E3F9DF" opacity="1.000000" stroke="none" 
	d="
M133.257080,278.162659 
	C133.242828,278.372223 132.933533,278.603668 132.328552,278.845886 
	C132.342606,278.632629 132.652313,278.408569 133.257080,278.162659 
z"/>
<path fill="#A63D40" opacity="1.000000" stroke="none" 
	d="
M88.044060,118.825226 
	C88.070198,119.106323 88.015602,119.542786 87.755066,119.767029 
	C87.494522,119.991280 87.008575,120.008553 86.848877,119.840775 
	C86.689186,119.673004 86.339134,119.369576 86.339127,119.369568 
	C86.710030,118.960419 87.080933,118.551262 87.717514,118.061348 
	C87.994759,118.168434 88.006340,118.356285 88.044060,118.825226 
z"/>
<path fill="#A63D40" opacity="1.000000" stroke="none" 
	d="
M86.983665,120.946747 
	C86.520409,120.963165 86.057152,120.979576 85.247818,120.958122 
	C85.219299,120.489464 85.536850,120.058678 86.096771,119.498734 
	C86.339134,119.369576 86.689186,119.673004 86.841316,120.075249 
	C86.993446,120.477493 86.983665,120.946747 86.983665,120.946747 
z"/>
<path fill="#A63D40" opacity="1.000000" stroke="none" 
	d="
M83.657669,121.947296 
	C83.940834,122.357468 83.971039,122.824913 83.750809,123.645721 
	C83.500381,123.999084 83.022713,124.022842 83.022713,124.022842 
	C82.902130,123.880539 82.781555,123.738235 82.518204,123.352219 
	C82.718521,122.740532 83.061615,122.372543 83.657669,121.947296 
z"/>
<path fill="#A63D40" opacity="1.000000" stroke="none" 
	d="
M84.679413,120.960648 
	C84.766838,121.195335 84.586906,121.495003 84.145950,121.868004 
	C84.060638,121.636101 84.236343,121.330864 84.679413,120.960648 
z"/>
<path fill="#A33936" opacity="1.000000" stroke="none" 
	d="
M83.008446,124.252914 
	C83.022713,124.022842 83.500381,123.999084 83.739243,123.997223 
	C83.800308,124.317772 83.622520,124.640182 83.211594,124.953171 
	C82.978455,124.943748 82.994179,124.482986 83.008446,124.252914 
z"/>
<path fill="#A33936" opacity="1.000000" stroke="none" 
	d="
M87.127441,121.109268 
	C86.983665,120.946747 86.993446,120.477493 87.001007,120.243027 
	C87.008575,120.008553 87.494522,119.991280 87.737366,119.986252 
	C87.743874,120.411400 87.507545,120.841591 87.127441,121.109268 
z"/>
</svg>